<?xml version="1.0" encoding="UTF-8"?>
<svg id="Layer_1" data-name="Layer 1" xmlns="http://www.w3.org/2000/svg" version="1.1" viewBox="0 0 1260 828">
  <defs>
    <style>
      .cls-1 {
        fill: #a7a9ac;
        stroke-width: 0px;
      }
    </style>
  </defs>
  <g>
    <path class="cls-1" d="M167.08,162.54c-.69-.81-1.62-.81-2.43-.11-4.86,4.05-10.65,6.71-17.84,6.71-14.24,0-25.01-10.77-25.01-25.48s10.77-25.59,25.01-25.59c7.18,0,12.97,2.66,17.84,6.72.81.7,1.74.7,2.43-.11l8.11-8.69c.7-.81.81-1.62,0-2.43-7.18-7.18-16.79-11.7-28.38-11.7-23.16,0-41.8,18.07-41.8,41.81s18.64,41.69,41.8,41.69c11.58,0,21.19-4.51,28.38-11.81.81-.81.7-1.62,0-2.31l-8.11-8.69Z"/>
    <path class="cls-1" d="M215.83,101.86c-23.04,0-41.69,18.3-41.69,41.81s18.64,41.69,41.69,41.69,41.69-18.3,41.69-41.69-18.64-41.81-41.69-41.81ZM215.83,169.14c-14.13,0-24.9-11-24.9-25.48s10.77-25.59,24.9-25.59,24.9,11,24.9,25.59-10.65,25.48-24.9,25.48Z"/>
    <path class="cls-1" d="M294.23,138.11l-8.34-3.82c-6.25-2.9-9.5-4.75-9.5-9.5s3.71-7.76,9.61-7.76c5.1,0,9.15,2.2,14.13,6.6.93.7,1.85.46,2.55-.46l6.6-7.99c.7-.93.7-1.85-.11-2.66-6.37-6.83-14.13-10.65-23.74-10.65-13.78,0-25.02,8.11-25.02,22.81,0,12.04,7.64,18.18,16.21,22.12l9.84,4.63c5.67,2.55,9.73,4.52,9.73,9.96,0,5.79-4.52,8.68-11.35,8.68s-11.23-2.78-16.33-7.99c-.93-.81-1.85-.7-2.66.23l-6.72,7.76c-.81.93-.81,1.74-.23,2.55,4.75,6.49,13.67,12.62,26.29,12.62,13.78,0,27.1-7.53,27.1-23.85,0-13.67-9.26-19.11-18.06-23.28Z"/>
    <rect class="cls-1" x="396.94" y="102.79" width="16.56" height="81.06" rx="1.74" ry="1.74"/>
    <path class="cls-1" d="M422.42,102.79h13.09c.96,0,1.74.78,1.74,1.74v77.59c0,.96-.78,1.74-1.74,1.74h-13.09c-.96,0-1.74-.78-1.74-1.74v-77.59c0-.96.78-1.74,1.74-1.74Z"/>
    <path class="cls-1" d="M504.18,162.54c-.7-.81-1.62-.81-2.43-.11-4.86,4.05-10.65,6.71-17.84,6.71-14.24,0-25.01-10.77-25.01-25.48s10.77-25.59,25.01-25.59c7.18,0,12.97,2.66,17.84,6.72.81.7,1.74.7,2.43-.11l8.11-8.69c.7-.81.81-1.62,0-2.43-7.18-7.18-16.79-11.7-28.38-11.7-23.16,0-41.8,18.07-41.8,41.81s18.65,41.69,41.8,41.69c11.58,0,21.19-4.51,28.38-11.81.81-.81.7-1.62,0-2.31l-8.11-8.69Z"/>
    <path class="cls-1" d="M351.02,59.08c-7.93,32.39-12.51,38.82-40.73,46.75,28.22,7.93,32.8,14.36,40.73,46.75,7.93-32.39,12.51-38.82,40.73-46.75-28.22-7.93-32.8-14.36-40.73-46.75Z"/>
    <path class="cls-1" d="M403.25,90.97c3.33-13.6,6.03-16.3,19.63-19.63-13.6-3.33-16.3-6.03-19.63-19.63-3.33,13.6-6.03,16.3-19.64,19.63,13.6,3.33,16.3,6.03,19.64,19.63Z"/>
    <polygon class="cls-1" points="328.45 147.76 328.45 183.85 344.27 183.85 328.45 147.76"/>
    <polygon class="cls-1" points="374.72 183.85 374.72 147.76 358.9 183.85 374.72 183.85"/>
    <path class="cls-1" d="M118.59,219.59c-.93-.54-1.98-.81-3.15-.81s-2.2.28-3.14.83c-.94.55-1.68,1.29-2.24,2.22-.55.93-.83,1.97-.83,3.12s.28,2.23.83,3.17c.55.95,1.3,1.7,2.24,2.26s1.99.84,3.14.84,2.22-.28,3.15-.84c.93-.56,1.67-1.31,2.22-2.25.55-.94.83-2,.83-3.19s-.28-2.2-.83-3.14c-.55-.94-1.29-1.68-2.22-2.22ZM119.24,227.29c-.38.69-.9,1.24-1.55,1.63-.65.39-1.4.58-2.25.58s-1.57-.19-2.24-.58c-.66-.39-1.18-.93-1.55-1.61-.37-.69-.56-1.47-.56-2.35s.19-1.63.56-2.3c.37-.67.89-1.2,1.55-1.59.66-.39,1.41-.58,2.24-.58s1.6.2,2.25.58c.65.39,1.17.92,1.55,1.59s.57,1.43.57,2.3-.19,1.64-.57,2.34Z"/>
    <path class="cls-1" d="M134.87,219.6c-.88-.55-1.87-.83-2.97-.83-.88,0-1.69.18-2.43.53-.74.36-1.34.86-1.82,1.51-.06.08-.1.16-.15.24v-2.03h-1.78v16.97h1.78v-7.1c.05.07.09.15.14.23.47.65,1.06,1.16,1.79,1.54.73.37,1.55.56,2.46.56,1.1,0,2.1-.27,2.98-.83.89-.55,1.59-1.29,2.09-2.22.51-.93.76-1.98.76-3.15s-.26-2.25-.78-3.19-1.21-1.68-2.09-2.24ZM135.34,227.35c-.36.69-.87,1.22-1.51,1.6-.64.38-1.39.57-2.24.57s-1.56-.19-2.18-.57c-.63-.38-1.12-.92-1.47-1.6s-.53-1.47-.53-2.35.18-1.68.53-2.36c.36-.68.85-1.21,1.49-1.6.64-.39,1.37-.58,2.2-.58s1.57.2,2.21.58c.64.39,1.15.92,1.51,1.6.36.68.55,1.46.55,2.36s-.18,1.66-.55,2.35Z"/>
    <path class="cls-1" d="M150.1,219.52c-.84-.49-1.8-.74-2.88-.74-1.15,0-2.19.27-3.12.81-.93.54-1.67,1.28-2.21,2.22s-.81,1.99-.81,3.16.28,2.25.83,3.2c.55.95,1.3,1.69,2.25,2.23s2.02.81,3.23.81c.95,0,1.83-.18,2.65-.55.82-.36,1.51-.88,2.07-1.54l-1.14-1.17c-.42.53-.94.92-1.55,1.18-.61.26-1.28.39-2.01.39-.9,0-1.69-.19-2.38-.58-.69-.39-1.22-.93-1.6-1.63-.27-.5-.45-1.06-.52-1.68h9.78c.05-.24.08-.44.1-.62s.03-.33.03-.47c0-1.13-.24-2.14-.72-3.01s-1.14-1.55-1.98-2.04ZM144.9,220.99c.64-.37,1.4-.56,2.26-.56s1.54.17,2.12.52c.58.35,1.03.84,1.35,1.47.24.5.38,1.07.43,1.71h-8.16c.08-.59.24-1.12.49-1.59.36-.67.87-1.19,1.51-1.56Z"/>
    <path class="cls-1" d="M164.99,219.44c-.71-.44-1.52-.66-2.44-.66s-1.76.2-2.48.61c-.63.35-1.13.83-1.54,1.42v-1.77h-1.78v11.94h1.78v-7.04c0-.68.15-1.28.46-1.8s.72-.94,1.24-1.24c.53-.31,1.13-.46,1.83-.46,1.02,0,1.83.33,2.45.98.62.65.93,1.5.93,2.55v7.01h1.8v-7.31c0-.88-.2-1.69-.6-2.44s-.95-1.34-1.66-1.78Z"/>
    <path class="cls-1" d="M180.52,220.85c.4-.3.98-.45,1.74-.45.66,0,1.26.12,1.79.37.53.25.98.6,1.33,1.05l1.14-1.14c-.44-.63-1.03-1.1-1.75-1.42-.73-.32-1.54-.48-2.44-.48-.85,0-1.58.14-2.2.42s-1.09.67-1.42,1.17c-.33.5-.5,1.09-.5,1.77,0,.71.16,1.29.47,1.73.31.44.72.78,1.23,1.03.51.25,1.04.45,1.6.61s1.09.33,1.59.5c.5.17.91.4,1.23.69.32.29.48.69.48,1.19,0,.54-.22.97-.67,1.27-.45.3-1.07.46-1.87.46-.75,0-1.42-.14-2.02-.42-.6-.28-1.14-.71-1.61-1.28l-1.14,1.17c.36.44.77.82,1.26,1.14.48.32,1.02.57,1.61.75s1.21.27,1.85.27c1.32,0,2.37-.32,3.14-.95s1.16-1.49,1.16-2.55c0-.76-.16-1.37-.47-1.82s-.72-.8-1.23-1.07-1.04-.47-1.6-.64c-.56-.16-1.09-.32-1.59-.48-.5-.16-.91-.37-1.23-.63-.32-.26-.48-.62-.48-1.08s.2-.86.6-1.16Z"/>
    <path class="cls-1" d="M199.18,219.59c-.93-.54-1.98-.81-3.15-.81s-2.2.28-3.14.83c-.94.55-1.68,1.29-2.24,2.22-.55.93-.83,1.97-.83,3.12s.28,2.23.83,3.17c.55.95,1.3,1.7,2.24,2.26s1.99.84,3.14.84,2.22-.28,3.15-.84c.93-.56,1.67-1.31,2.22-2.25.55-.94.83-2,.83-3.19s-.28-2.2-.83-3.14c-.55-.94-1.29-1.68-2.22-2.22ZM199.82,227.29c-.38.69-.9,1.24-1.55,1.63-.65.39-1.4.58-2.25.58s-1.57-.19-2.24-.58c-.66-.39-1.18-.93-1.55-1.61-.37-.69-.56-1.47-.56-2.35s.19-1.63.56-2.3c.37-.67.89-1.2,1.55-1.59.66-.39,1.41-.58,2.24-.58s1.6.2,2.25.58c.65.39,1.17.92,1.55,1.59s.57,1.43.57,2.3-.19,1.64-.57,2.34Z"/>
    <path class="cls-1" d="M214.29,225.89c0,1.1-.29,1.98-.88,2.64-.58.66-1.38.99-2.37.99-.64,0-1.21-.15-1.7-.46s-.87-.73-1.13-1.27c-.26-.54-.39-1.18-.39-1.9v-6.86h-1.8v6.93c0,1.05.22,1.96.65,2.74.43.78,1.03,1.39,1.79,1.84s1.62.67,2.59.67,1.85-.22,2.62-.66c.76-.44,1.35-1.06,1.78-1.85.42-.8.63-1.71.63-2.74v-6.93h-1.78v6.86Z"/>
    <path class="cls-1" d="M225.82,218.78c-1.29,0-2.3.44-3.04,1.32-.14.17-.25.36-.37.55v-1.61h-1.78v11.94h1.78v-6.96c0-1.17.29-2.05.86-2.65.58-.6,1.32-.9,2.24-.9.44,0,.83.07,1.18.2.35.14.66.37.95.69l1.17-1.25c-.42-.46-.88-.79-1.37-1s-1.03-.32-1.62-.32Z"/>
    <path class="cls-1" d="M238.87,229.13c-.58.25-1.2.37-1.88.37-.85,0-1.6-.19-2.26-.58-.66-.39-1.18-.93-1.55-1.61-.37-.69-.56-1.46-.56-2.32s.19-1.66.56-2.32c.37-.67.89-1.2,1.55-1.59.66-.39,1.41-.58,2.26-.58.66,0,1.28.12,1.85.37.58.25,1.07.6,1.47,1.05l1.17-1.19c-.54-.61-1.2-1.08-1.98-1.42-.78-.34-1.62-.51-2.51-.51-1.17,0-2.22.27-3.16.81-.94.54-1.68,1.28-2.24,2.22-.55.94-.83,1.99-.83,3.16s.28,2.23.83,3.17c.55.95,1.3,1.7,2.24,2.25.94.55,1.99.83,3.16.83.9,0,1.74-.17,2.53-.51.79-.34,1.46-.82,2.02-1.45l-1.19-1.19c-.41.46-.9.81-1.47,1.05Z"/>
    <path class="cls-1" d="M253.28,219.52c-.84-.49-1.8-.74-2.88-.74-1.15,0-2.19.27-3.12.81-.93.54-1.67,1.28-2.21,2.22s-.81,1.99-.81,3.16.28,2.25.83,3.2c.55.95,1.3,1.69,2.25,2.23s2.02.81,3.23.81c.95,0,1.83-.18,2.65-.55.82-.36,1.51-.88,2.07-1.54l-1.14-1.17c-.42.53-.94.92-1.55,1.18-.61.26-1.28.39-2.01.39-.9,0-1.69-.19-2.38-.58-.69-.39-1.22-.93-1.6-1.63-.27-.5-.45-1.06-.52-1.68h9.78c.05-.24.08-.44.1-.62s.03-.33.03-.47c0-1.13-.24-2.14-.72-3.01s-1.14-1.55-1.98-2.04ZM248.09,220.99c.64-.37,1.4-.56,2.26-.56s1.54.17,2.12.52c.58.35,1.03.84,1.35,1.47.24.5.38,1.07.43,1.71h-8.16c.08-.59.24-1.12.49-1.59.36-.67.87-1.19,1.51-1.56Z"/>
    <path class="cls-1" d="M267.6,213.95c-.34,0-.63.12-.86.36s-.36.53-.36.89.12.63.36.88c.24.25.53.37.86.37.37,0,.67-.12.9-.37.23-.25.34-.54.34-.88,0-.36-.11-.65-.34-.89s-.53-.36-.9-.36Z"/>
    <rect class="cls-1" x="266.71" y="219.03" width="1.8" height="11.94"/>
    <path class="cls-1" d="M289.37,219.34c-.69-.37-1.45-.56-2.3-.56s-1.62.19-2.32.56c-.7.37-1.27.9-1.7,1.58-.05.08-.09.16-.13.25-.04-.08-.07-.17-.12-.25-.4-.68-.93-1.2-1.6-1.58-.67-.37-1.43-.56-2.27-.56s-1.64.19-2.32.56c-.58.32-1.05.75-1.43,1.28v-1.59h-1.78v11.94h1.78v-7.34c0-.66.15-1.23.44-1.7s.69-.84,1.19-1.1c.5-.26,1.05-.39,1.66-.39.9,0,1.64.29,2.23.88s.89,1.37.89,2.35v7.31h1.8v-7.34c0-.66.15-1.23.44-1.7s.69-.84,1.19-1.1c.5-.26,1.04-.39,1.64-.39.91,0,1.67.29,2.26.88.59.58.89,1.37.89,2.35v7.31h1.78v-7.64c0-.93-.2-1.74-.6-2.41-.4-.68-.94-1.2-1.62-1.58Z"/>
    <path class="cls-1" d="M305.36,219.6c-.88-.55-1.87-.83-2.97-.83-.88,0-1.69.18-2.43.53-.74.36-1.34.86-1.82,1.51-.06.08-.1.16-.15.24v-2.03h-1.78v16.97h1.78v-7.1c.05.07.09.15.14.23.47.65,1.06,1.16,1.79,1.54.73.37,1.55.56,2.46.56,1.1,0,2.1-.27,2.98-.83.89-.55,1.59-1.29,2.09-2.22.51-.93.76-1.98.76-3.15s-.26-2.25-.78-3.19-1.21-1.68-2.09-2.24ZM305.83,227.35c-.36.69-.87,1.22-1.51,1.6-.64.38-1.39.57-2.24.57s-1.56-.19-2.18-.57c-.63-.38-1.12-.92-1.47-1.6s-.53-1.47-.53-2.35.18-1.68.53-2.36c.36-.68.85-1.21,1.49-1.6.64-.39,1.37-.58,2.2-.58s1.57.2,2.21.58c.64.39,1.15.92,1.51,1.6.36.68.55,1.46.55,2.36s-.18,1.66-.55,2.35Z"/>
    <rect class="cls-1" x="312.34" y="212.99" width="1.78" height="17.98"/>
    <path class="cls-1" d="M328.47,221.04c-.04-.06-.07-.13-.11-.19-.45-.65-1.03-1.16-1.75-1.52-.72-.36-1.54-.55-2.45-.55-1.12,0-2.12.28-3.02.83-.9.55-1.6,1.3-2.12,2.24s-.77,2-.77,3.19.26,2.22.77,3.15c.52.93,1.22,1.67,2.12,2.22.9.55,1.91.83,3.05.83.9,0,1.71-.18,2.43-.55.72-.36,1.3-.88,1.75-1.54.04-.06.08-.13.11-.19v2.02h1.78v-11.94h-1.78v2.01ZM327.44,228.28c-.75.83-1.75,1.24-2.98,1.24-.85,0-1.6-.19-2.26-.58-.66-.39-1.18-.92-1.56-1.6-.38-.68-.57-1.46-.57-2.34s.19-1.66.57-2.35.9-1.22,1.55-1.61c.65-.39,1.4-.58,2.25-.58s1.55.19,2.17.57c.62.38,1.1.91,1.45,1.6.35.69.52,1.48.52,2.38,0,1.35-.38,2.45-1.13,3.28Z"/>
    <path class="cls-1" d="M343.35,219.44c-.71-.44-1.52-.66-2.44-.66s-1.76.2-2.48.61c-.63.35-1.13.83-1.54,1.42v-1.77h-1.78v11.94h1.78v-7.04c0-.68.15-1.28.46-1.8s.72-.94,1.24-1.24c.53-.31,1.13-.46,1.83-.46,1.02,0,1.83.33,2.45.98.62.65.93,1.5.93,2.55v7.01h1.8v-7.31c0-.88-.2-1.69-.6-2.44s-.95-1.34-1.66-1.78Z"/>
    <polygon class="cls-1" points="353.69 214.01 351.91 214.01 351.91 219.03 348.89 219.03 348.89 220.63 351.91 220.63 351.91 230.97 353.69 230.97 353.69 220.63 356.69 220.63 356.69 219.03 353.69 219.03 353.69 214.01"/>
    <path class="cls-1" d="M369.41,221.04c-.04-.06-.07-.13-.11-.19-.45-.65-1.03-1.16-1.75-1.52-.72-.36-1.54-.55-2.45-.55-1.12,0-2.12.28-3.02.83-.9.55-1.6,1.3-2.12,2.24s-.77,2-.77,3.19.26,2.22.77,3.15c.52.93,1.22,1.67,2.12,2.22.9.55,1.91.83,3.05.83.9,0,1.71-.18,2.43-.55.72-.36,1.3-.88,1.75-1.54.04-.06.08-.13.11-.19v2.02h1.78v-11.94h-1.78v2.01ZM368.38,228.28c-.75.83-1.75,1.24-2.98,1.24-.85,0-1.6-.19-2.26-.58-.66-.39-1.18-.92-1.56-1.6-.38-.68-.57-1.46-.57-2.34s.19-1.66.57-2.35.9-1.22,1.55-1.61c.65-.39,1.4-.58,2.25-.58s1.55.19,2.17.57c.62.38,1.1.91,1.45,1.6.35.69.52,1.48.52,2.38,0,1.35-.38,2.45-1.13,3.28Z"/>
    <path class="cls-1" d="M385.21,219.6c-.88-.55-1.87-.83-2.97-.83-.88,0-1.69.18-2.43.53-.74.36-1.34.86-1.82,1.51-.06.08-.1.16-.15.24v-8.08h-1.78v17.98h1.78v-2.07c.05.07.09.15.14.23.47.65,1.06,1.16,1.79,1.54.73.37,1.55.56,2.46.56,1.1,0,2.1-.27,2.98-.83.89-.55,1.59-1.29,2.09-2.22.51-.93.76-1.98.76-3.15s-.26-2.25-.78-3.19-1.21-1.68-2.09-2.24ZM385.68,227.35c-.36.69-.87,1.22-1.51,1.6-.64.38-1.39.57-2.24.57s-1.56-.19-2.18-.57c-.63-.38-1.12-.92-1.47-1.6s-.53-1.47-.53-2.35.18-1.68.53-2.36c.36-.68.85-1.21,1.49-1.6.64-.39,1.37-.58,2.2-.58s1.57.2,2.21.58c.64.39,1.15.92,1.51,1.6.36.68.55,1.46.55,2.36s-.18,1.66-.55,2.35Z"/>
    <rect class="cls-1" x="392.19" y="212.99" width="1.78" height="17.98"/>
    <path class="cls-1" d="M407.09,219.52c-.84-.49-1.8-.74-2.88-.74-1.15,0-2.19.27-3.12.81-.93.54-1.67,1.28-2.21,2.22s-.81,1.99-.81,3.16.28,2.25.83,3.2c.55.95,1.3,1.69,2.25,2.23s2.02.81,3.23.81c.95,0,1.83-.18,2.65-.55.82-.36,1.51-.88,2.07-1.54l-1.14-1.17c-.42.53-.94.92-1.55,1.18-.61.26-1.28.39-2.01.39-.9,0-1.69-.19-2.38-.58-.69-.39-1.22-.93-1.6-1.63-.27-.5-.45-1.06-.52-1.68h9.78c.05-.24.08-.44.1-.62s.03-.33.03-.47c0-1.13-.24-2.14-.72-3.01s-1.14-1.55-1.98-2.04ZM401.89,220.99c.64-.37,1.4-.56,2.26-.56s1.54.17,2.12.52c.58.35,1.03.84,1.35,1.47.24.5.38,1.07.43,1.71h-8.16c.08-.59.24-1.12.49-1.59.36-.67.87-1.19,1.51-1.56Z"/>
    <path class="cls-1" d="M429.96,221.04c-.05-.07-.09-.15-.14-.22-.48-.65-1.09-1.16-1.82-1.51-.73-.36-1.54-.53-2.44-.53-1.1,0-2.09.28-2.97.83-.88.55-1.58,1.3-2.1,2.24s-.77,2-.77,3.19.26,2.22.77,3.16c.52.94,1.21,1.68,2.1,2.22.88.54,1.87.81,2.97.81.91,0,1.74-.19,2.46-.56.73-.37,1.33-.88,1.79-1.54.05-.07.09-.15.14-.23v2.07h1.78v-17.98h-1.78v8.06ZM429.53,227.35c-.36.69-.85,1.22-1.47,1.6-.63.38-1.36.57-2.18.57s-1.57-.19-2.22-.57c-.65-.38-1.16-.92-1.52-1.6s-.55-1.47-.55-2.35.18-1.66.55-2.35.87-1.22,1.51-1.61,1.38-.58,2.21-.58,1.56.2,2.18.58c.63.39,1.12.92,1.49,1.6.36.68.55,1.46.55,2.36s-.18,1.66-.53,2.35Z"/>
    <path class="cls-1" d="M444.85,219.52c-.84-.49-1.8-.74-2.88-.74-1.15,0-2.19.27-3.12.81-.93.54-1.67,1.28-2.21,2.22s-.81,1.99-.81,3.16.28,2.25.83,3.2c.55.95,1.3,1.69,2.25,2.23s2.02.81,3.23.81c.95,0,1.83-.18,2.65-.55.82-.36,1.51-.88,2.07-1.54l-1.14-1.17c-.42.53-.94.92-1.55,1.18-.61.26-1.28.39-2.01.39-.9,0-1.69-.19-2.38-.58-.69-.39-1.22-.93-1.6-1.63-.27-.5-.45-1.06-.52-1.68h9.78c.05-.24.08-.44.1-.62s.03-.33.03-.47c0-1.13-.24-2.14-.72-3.01s-1.14-1.55-1.98-2.04ZM439.66,220.99c.64-.37,1.4-.56,2.26-.56s1.54.17,2.12.52c.58.35,1.03.84,1.35,1.47.24.5.38,1.07.43,1.71h-8.16c.08-.59.24-1.12.49-1.59.36-.67.87-1.19,1.51-1.56Z"/>
    <polygon class="cls-1" points="456.04 228.22 451.95 219.03 449.97 219.03 455.48 230.97 456.52 230.97 462.08 219.03 460.15 219.03 456.04 228.22"/>
    <rect class="cls-1" x="465.56" y="219.03" width="1.8" height="11.94"/>
    <path class="cls-1" d="M466.45,213.95c-.34,0-.63.12-.86.36s-.36.53-.36.89.12.63.36.88c.24.25.53.37.86.37.37,0,.67-.12.9-.37.23-.25.34-.54.34-.88,0-.36-.11-.65-.34-.89s-.53-.36-.9-.36Z"/>
    <path class="cls-1" d="M479.53,229.13c-.58.25-1.2.37-1.88.37-.85,0-1.6-.19-2.26-.58-.66-.39-1.18-.93-1.55-1.61-.37-.69-.56-1.46-.56-2.32s.19-1.66.56-2.32c.37-.67.89-1.2,1.55-1.59.66-.39,1.41-.58,2.26-.58.66,0,1.28.12,1.85.37.58.25,1.07.6,1.47,1.05l1.17-1.19c-.54-.61-1.2-1.08-1.98-1.42-.78-.34-1.62-.51-2.51-.51-1.17,0-2.22.27-3.16.81-.94.54-1.68,1.28-2.24,2.22-.55.94-.83,1.99-.83,3.16s.28,2.23.83,3.17c.55.95,1.3,1.7,2.24,2.25.94.55,1.99.83,3.16.83.9,0,1.74-.17,2.53-.51.79-.34,1.46-.82,2.02-1.45l-1.19-1.19c-.41.46-.9.81-1.47,1.05Z"/>
    <path class="cls-1" d="M493.97,219.52c-.84-.49-1.8-.74-2.88-.74-1.15,0-2.19.27-3.12.81-.93.54-1.67,1.28-2.21,2.22s-.81,1.99-.81,3.16.28,2.25.83,3.2c.55.95,1.3,1.69,2.25,2.23s2.02.81,3.23.81c.95,0,1.83-.18,2.65-.55.82-.36,1.51-.88,2.07-1.54l-1.14-1.17c-.42.53-.94.92-1.55,1.18-.61.26-1.28.39-2.01.39-.9,0-1.69-.19-2.38-.58-.69-.39-1.22-.93-1.6-1.63-.27-.5-.45-1.06-.52-1.68h9.78c.05-.24.08-.44.1-.62s.03-.33.03-.47c0-1.13-.24-2.14-.72-3.01s-1.14-1.55-1.98-2.04ZM488.78,220.99c.64-.37,1.4-.56,2.26-.56s1.54.17,2.12.52c.58.35,1.03.84,1.35,1.47.24.5.38,1.07.43,1.71h-8.16c.08-.59.24-1.12.49-1.59.36-.67.87-1.19,1.51-1.56Z"/>
    <path class="cls-1" d="M502.6,220.85c.4-.3.98-.45,1.74-.45.66,0,1.26.12,1.79.37.53.25.98.6,1.33,1.05l1.14-1.14c-.44-.63-1.03-1.1-1.75-1.42-.73-.32-1.54-.48-2.44-.48-.85,0-1.58.14-2.2.42s-1.09.67-1.42,1.17c-.33.5-.5,1.09-.5,1.77,0,.71.16,1.29.47,1.73.31.44.72.78,1.23,1.03.51.25,1.04.45,1.6.61s1.09.33,1.59.5c.5.17.91.4,1.23.69.32.29.48.69.48,1.19,0,.54-.22.97-.67,1.27-.45.3-1.07.46-1.87.46-.75,0-1.42-.14-2.02-.42-.6-.28-1.14-.71-1.61-1.28l-1.14,1.17c.36.44.77.82,1.26,1.14.48.32,1.02.57,1.61.75s1.21.27,1.85.27c1.32,0,2.37-.32,3.14-.95s1.16-1.49,1.16-2.55c0-.76-.16-1.37-.47-1.82s-.72-.8-1.23-1.07-1.04-.47-1.6-.64c-.56-.16-1.09-.32-1.59-.48-.5-.16-.91-.37-1.23-.63-.32-.26-.48-.62-.48-1.08s.2-.86.6-1.16Z"/>
  </g>
  <g>
    <path class="cls-1" d="M737.49,346.83c-.72-.36-1.53-.54-2.42-.54h-5.9v14.12h3.14v-5.14h2.76c.89,0,1.7-.18,2.42-.55.72-.37,1.29-.89,1.71-1.56.42-.67.63-1.47.63-2.39s-.21-1.72-.63-2.39c-.42-.67-.99-1.19-1.71-1.55ZM736.43,351.89c-.19.31-.44.54-.76.7-.32.16-.67.24-1.06.24h-2.3v-4.1h2.3c.39,0,.74.08,1.06.24.32.16.57.39.76.7.19.31.28.67.28,1.1s-.09.81-.28,1.12Z"/>
    <path class="cls-1" d="M753.72,348.14c-.67-.66-1.46-1.17-2.36-1.54-.9-.37-1.88-.55-2.93-.55s-2.05.18-2.95.55c-.9.37-1.68.88-2.35,1.54-.67.66-1.19,1.43-1.56,2.31s-.56,1.84-.56,2.88.19,1.98.56,2.87.9,1.66,1.58,2.33,1.47,1.19,2.37,1.56,1.88.56,2.95.56,2.01-.19,2.91-.56,1.68-.89,2.35-1.55,1.19-1.43,1.56-2.32c.37-.89.56-1.84.56-2.87s-.19-2-.56-2.89c-.37-.89-.9-1.66-1.57-2.32ZM752.11,355.66c-.35.67-.84,1.2-1.47,1.57s-1.37.56-2.21.56c-.63,0-1.2-.11-1.72-.32-.52-.21-.96-.52-1.33-.91-.37-.39-.65-.86-.85-1.41-.2-.55-.3-1.15-.3-1.82,0-.89.17-1.67.52-2.33.35-.66.84-1.17,1.47-1.54.63-.37,1.37-.55,2.21-.55.63,0,1.2.1,1.71.31.51.21.96.51,1.33.9s.66.86.86,1.4c.2.54.3,1.14.3,1.81,0,.88-.17,1.66-.52,2.33Z"/>
    <polygon class="cls-1" points="769.88 355.16 767.23 346.29 764.77 346.29 762.13 355.13 759.43 346.29 756.31 346.29 760.85 360.41 763.31 360.41 765.99 351.48 768.67 360.41 771.13 360.41 775.67 346.29 772.57 346.29 769.88 355.16"/>
    <polygon class="cls-1" points="780.51 354.51 786.81 354.51 786.81 351.89 780.51 351.89 780.51 348.99 787.41 348.99 787.41 346.29 780.51 346.29 779.77 346.29 777.37 346.29 777.37 360.41 779.77 360.41 780.51 360.41 787.51 360.41 787.51 357.69 780.51 357.69 780.51 354.51"/>
    <path class="cls-1" d="M797.87,354.07c.72-.35,1.28-.83,1.68-1.45s.6-1.34.6-2.17-.2-1.53-.6-2.16c-.4-.63-.95-1.12-1.66-1.47s-1.53-.53-2.46-.53h-5.76v14.12h3.14v-5.82h.33l4.21,5.82h3.72l-4.53-5.93c.48-.09.93-.22,1.33-.41ZM792.81,348.73h2.26c.63,0,1.11.17,1.44.5.33.33.5.75.5,1.26,0,.55-.17.98-.51,1.3s-.82.48-1.45.48h-2.24v-3.54Z"/>
    <polygon class="cls-1" points="813.74 354.06 808.75 346.29 806.51 346.29 806.51 360.41 809.63 360.41 809.63 352.57 812.69 357.37 814.77 357.37 817.83 352.6 817.83 360.41 820.97 360.41 820.97 346.29 818.71 346.29 813.74 354.06"/>
    <path class="cls-1" d="M835.66,348.14c-.67-.66-1.46-1.17-2.36-1.54-.9-.37-1.88-.55-2.93-.55s-2.05.18-2.95.55c-.9.37-1.68.88-2.35,1.54-.67.66-1.19,1.43-1.56,2.31s-.56,1.84-.56,2.88.19,1.98.56,2.87.9,1.66,1.58,2.33,1.47,1.19,2.37,1.56,1.88.56,2.95.56,2.01-.19,2.91-.56,1.68-.89,2.35-1.55,1.19-1.43,1.56-2.32c.37-.89.56-1.84.56-2.87s-.19-2-.56-2.89c-.37-.89-.9-1.66-1.57-2.32ZM834.05,355.66c-.35.67-.84,1.2-1.47,1.57s-1.37.56-2.21.56c-.63,0-1.2-.11-1.72-.32-.52-.21-.96-.52-1.33-.91-.37-.39-.65-.86-.85-1.41-.2-.55-.3-1.15-.3-1.82,0-.89.17-1.67.52-2.33.35-.66.84-1.17,1.47-1.54.63-.37,1.37-.55,2.21-.55.63,0,1.2.1,1.71.31.51.21.96.51,1.33.9s.66.86.86,1.4c.2.54.3,1.14.3,1.81,0,.88-.17,1.66-.52,2.33Z"/>
    <path class="cls-1" d="M850.76,348.26c-.67-.63-1.46-1.12-2.36-1.46-.9-.34-1.88-.51-2.95-.51h-5.66v14.12h5.7c1.05,0,2.03-.17,2.93-.52s1.68-.83,2.35-1.46c.67-.63,1.18-1.37,1.55-2.24.37-.87.55-1.81.55-2.84s-.18-1.99-.55-2.85c-.37-.86-.89-1.61-1.56-2.24ZM849.13,355.65c-.35.65-.84,1.15-1.48,1.49-.64.34-1.39.51-2.24.51h-2.48v-8.62h2.48c.85,0,1.6.17,2.23.52.63.35,1.13.84,1.48,1.48.35.64.53,1.41.53,2.3s-.17,1.67-.52,2.32Z"/>
    <path class="cls-1" d="M863.25,355.05c0,.56-.12,1.04-.35,1.45-.23.41-.55.72-.95.94-.4.22-.87.33-1.4.33s-.97-.11-1.39-.33c-.42-.22-.75-.54-.99-.95s-.36-.9-.36-1.46v-8.74h-3.16v8.56c0,1.12.25,2.12.75,2.99.5.87,1.19,1.56,2.08,2.05s1.91.74,3.07.74,2.18-.25,3.06-.74,1.57-1.17,2.06-2.04c.49-.87.74-1.86.74-2.98v-8.58h-3.16v8.76Z"/>
    <polygon class="cls-1" points="872.05 346.29 868.91 346.29 868.91 360.41 871.33 360.41 872.05 360.41 878.31 360.41 878.31 357.65 872.05 357.65 872.05 346.29"/>
    <polygon class="cls-1" points="883.27 357.69 883.27 354.51 889.57 354.51 889.57 351.89 883.27 351.89 883.27 348.99 890.17 348.99 890.17 346.29 883.27 346.29 882.53 346.29 880.13 346.29 880.13 360.41 882.53 360.41 883.27 360.41 890.27 360.41 890.27 357.69 883.27 357.69"/>
  </g>
  <g>
    <polygon class="cls-1" points="695.85 689.18 689.15 680.6 686.95 680.6 686.95 694.72 690.09 694.72 690.09 686.26 696.69 694.72 698.99 694.72 698.99 680.6 695.85 680.6 695.85 689.18"/>
    <polygon class="cls-1" points="711.85 694.72 711.85 692 704.85 692 704.85 688.82 711.15 688.82 711.15 686.2 704.85 686.2 704.85 683.3 711.75 683.3 711.75 680.6 704.85 680.6 704.11 680.6 701.71 680.6 701.71 694.72 704.11 694.72 704.85 694.72 711.85 694.72"/>
    <polygon class="cls-1" points="717.05 694.72 720.19 694.72 720.19 683.34 724.61 683.34 724.61 680.6 712.63 680.6 712.63 683.34 717.05 683.34 717.05 694.72"/>
    <polygon class="cls-1" points="738.45 689.47 735.81 680.6 733.35 680.6 730.71 689.44 728.01 680.6 724.89 680.6 729.43 694.72 731.89 694.72 734.57 685.79 737.25 694.72 739.71 694.72 744.25 680.6 741.15 680.6 738.45 689.47"/>
    <path class="cls-1" d="M749.22,694.4c.9.37,1.88.56,2.95.56s2.01-.19,2.91-.56c.9-.37,1.68-.89,2.35-1.55.67-.66,1.19-1.43,1.56-2.32.37-.89.56-1.84.56-2.87s-.19-2-.56-2.89-.9-1.66-1.57-2.32c-.67-.66-1.46-1.17-2.36-1.54-.9-.37-1.88-.55-2.93-.55s-2.05.18-2.95.55c-.9.37-1.68.88-2.35,1.54-.67.66-1.19,1.43-1.56,2.31s-.56,1.84-.56,2.88.19,1.98.56,2.87.9,1.66,1.58,2.33,1.47,1.19,2.37,1.56ZM748.45,685.31c.35-.66.84-1.17,1.47-1.54.63-.37,1.37-.55,2.21-.55.63,0,1.2.1,1.71.31.51.21.96.51,1.33.9.37.39.66.86.86,1.4s.3,1.14.3,1.81c0,.88-.17,1.66-.52,2.33-.35.67-.84,1.2-1.47,1.57-.63.37-1.37.56-2.21.56-.63,0-1.2-.11-1.72-.32-.52-.21-.96-.52-1.33-.91-.37-.39-.65-.86-.85-1.41s-.3-1.15-.3-1.82c0-.89.17-1.67.52-2.33Z"/>
    <path class="cls-1" d="M769.75,688.38c.72-.35,1.28-.83,1.68-1.45s.6-1.34.6-2.17-.2-1.53-.6-2.16c-.4-.63-.95-1.12-1.66-1.47s-1.53-.53-2.46-.53h-5.76v14.12h3.14v-5.82h.33l4.21,5.82h3.72l-4.53-5.93c.48-.09.93-.22,1.33-.41ZM764.69,683.04h2.26c.63,0,1.11.17,1.44.5s.5.75.5,1.26c0,.55-.17.98-.51,1.3s-.82.48-1.45.48h-2.24v-3.54Z"/>
    <polygon class="cls-1" points="786.75 694.72 780.84 687.32 786.55 680.6 782.67 680.6 777.45 686.97 777.45 680.6 774.31 680.6 774.31 694.72 777.45 694.72 777.45 687.77 782.85 694.72 786.75 694.72"/>
    <path class="cls-1" d="M713.87,715.74c-.53.23-1.16.34-1.88.34-.61,0-1.18-.11-1.69-.32-.51-.21-.95-.51-1.32-.9-.37-.39-.65-.85-.86-1.4s-.31-1.15-.31-1.82.1-1.25.31-1.8.49-1.01.86-1.4c.37-.39.81-.68,1.32-.89.51-.21,1.08-.31,1.69-.31.69,0,1.3.11,1.83.34s.98.54,1.35.94l2.1-2.12c-.65-.63-1.42-1.12-2.29-1.48-.87-.36-1.87-.54-2.99-.54-1.05,0-2.03.18-2.93.55-.9.37-1.68.88-2.35,1.53-.67.65-1.19,1.42-1.56,2.31s-.56,1.84-.56,2.87.19,1.98.56,2.87.9,1.66,1.57,2.33c.67.67,1.46,1.18,2.36,1.55.9.37,1.88.55,2.93.55,1.15,0,2.16-.18,3.03-.54.87-.36,1.65-.85,2.33-1.48l-2.12-2.12c-.39.4-.85.71-1.38.94Z"/>
    <path class="cls-1" d="M723.27,704.6l-5.6,14.12h3.26l.94-2.56h5.53l.93,2.56h3.32l-5.54-14.12h-2.84ZM722.81,713.6l1.85-5.04,1.82,5.04h-3.67Z"/>
    <path class="cls-1" d="M741.74,711.17c.34-.19.65-.41.89-.67.56-.6.84-1.33.84-2.2,0-.68-.17-1.3-.5-1.86-.33-.56-.82-1.01-1.45-1.34-.63-.33-1.4-.5-2.31-.5h-6.06v14.12h6.02c1,0,1.86-.18,2.57-.54.71-.36,1.26-.85,1.64-1.47.38-.62.57-1.32.57-2.09,0-1.01-.32-1.87-.97-2.56-.34-.36-.75-.66-1.24-.89ZM738.61,707.04c.52,0,.94.13,1.26.39s.48.65.48,1.17-.16.93-.48,1.19c-.32.26-.74.39-1.26.39h-2.36v-3.14h2.36ZM740.31,715.74c-.35.36-.83.54-1.44.54h-2.62v-3.72h2.62c.41,0,.76.08,1.05.24.29.16.51.38.67.66.16.28.24.6.24.96,0,.52-.17.96-.52,1.32Z"/>
    <polygon class="cls-1" points="749.11 704.6 745.97 704.6 745.97 718.72 748.39 718.72 749.11 718.72 755.37 718.72 755.37 715.96 749.11 715.96 749.11 704.6"/>
    <polygon class="cls-1" points="760.33 712.82 766.63 712.82 766.63 710.2 760.33 710.2 760.33 707.3 767.23 707.3 767.23 704.6 760.33 704.6 759.59 704.6 757.19 704.6 757.19 718.72 759.59 718.72 760.33 718.72 767.33 718.72 767.33 716 760.33 716 760.33 712.82"/>
  </g>
  <g>
    <path class="cls-1" d="M877.44,690.62c0-.73-.12-1.35-.36-1.85s-.56-.91-.95-1.24c-.39-.33-.82-.6-1.29-.81-.47-.21-.94-.4-1.41-.56-.47-.16-.91-.32-1.3-.48-.39-.16-.71-.35-.95-.57-.24-.22-.36-.51-.36-.87,0-.39.16-.68.48-.89.32-.21.75-.31,1.3-.31s1.04.11,1.47.32c.43.21.86.54,1.29.98l2.04-2.02c-.53-.6-1.21-1.07-2.03-1.42-.82-.35-1.72-.52-2.71-.52s-1.83.16-2.58.49c-.75.33-1.33.8-1.75,1.43s-.63,1.37-.63,2.24c0,.72.12,1.32.36,1.79.24.47.56.87.95,1.18.39.31.82.57,1.29.78s.94.39,1.41.55c.47.16.91.33,1.3.5.39.17.71.38.95.62.24.24.36.55.36.94,0,.43-.18.76-.55,1-.37.24-.88.36-1.55.36-.73,0-1.38-.14-1.93-.43-.55-.29-1.06-.69-1.51-1.21l-2.04,2.02c.69.77,1.46,1.35,2.29,1.73.83.38,1.83.57,2.99.57,1.69,0,3.02-.38,3.98-1.15.96-.77,1.44-1.82,1.44-3.17Z"/>
    <polygon class="cls-1" points="882.38 694.72 885.52 694.72 885.52 683.34 889.94 683.34 889.94 680.6 877.96 680.6 877.96 683.34 882.38 683.34 882.38 694.72"/>
    <rect class="cls-1" x="891.7" y="680.6" width="3.14" height="14.12"/>
    <polygon class="cls-1" points="900.68 686.88 903.74 691.68 905.82 691.68 908.88 686.91 908.88 694.72 912.02 694.72 912.02 680.6 909.76 680.6 904.79 688.37 899.8 680.6 897.56 680.6 897.56 694.72 900.68 694.72 900.68 686.88"/>
    <path class="cls-1" d="M925.52,692.16c.49-.87.74-1.86.74-2.98v-8.58h-3.16v8.76c0,.56-.12,1.04-.35,1.45-.23.41-.55.72-.95.94-.4.22-.87.33-1.4.33s-.97-.11-1.39-.33c-.42-.22-.75-.54-.99-.95s-.36-.9-.36-1.46v-8.74h-3.16v8.56c0,1.12.25,2.12.75,2.99.5.87,1.19,1.56,2.08,2.05s1.91.74,3.07.74,2.18-.25,3.06-.74,1.57-1.17,2.06-2.04Z"/>
    <polygon class="cls-1" points="931.9 694.72 938.16 694.72 938.16 691.96 931.9 691.96 931.9 680.6 928.76 680.6 928.76 694.72 931.18 694.72 931.9 694.72"/>
    <path class="cls-1" d="M946.98,680.6h-2.84l-5.6,14.12h3.26l.94-2.56h5.53l.93,2.56h3.32l-5.54-14.12ZM943.68,689.6l1.85-5.04,1.82,5.04h-3.67Z"/>
    <polygon class="cls-1" points="955.9 694.72 959.04 694.72 959.04 683.34 963.46 683.34 963.46 680.6 951.48 680.6 951.48 683.34 955.9 683.34 955.9 694.72"/>
    <rect class="cls-1" x="965.22" y="680.6" width="3.14" height="14.12"/>
    <polygon class="cls-1" points="983.12 680.6 979.98 680.6 979.98 689.18 973.28 680.6 971.08 680.6 971.08 694.72 974.22 694.72 974.22 686.26 980.82 694.72 983.12 694.72 983.12 680.6"/>
    <path class="cls-1" d="M992.22,686.72v2.66l4.05.06c-.08.29-.17.56-.3.81-.31.59-.76,1.05-1.34,1.36-.58.31-1.28.47-2.11.47s-1.53-.19-2.16-.56c-.63-.37-1.12-.89-1.48-1.56-.36-.67-.54-1.44-.54-2.32s.18-1.65.55-2.31c.37-.66.88-1.17,1.53-1.54.65-.37,1.39-.55,2.22-.55.77,0,1.47.15,2.08.44.61.29,1.15.73,1.6,1.32l2.14-2.14c-.65-.77-1.48-1.38-2.47-1.82-.99-.44-2.1-.66-3.31-.66-1.05,0-2.04.18-2.96.55-.92.37-1.72.88-2.41,1.54s-1.22,1.43-1.61,2.31c-.39.88-.58,1.83-.58,2.86s.19,1.98.57,2.87.9,1.66,1.57,2.32c.67.66,1.45,1.18,2.35,1.55s1.86.56,2.89.56c1.4,0,2.64-.29,3.71-.88,1.07-.59,1.91-1.46,2.52-2.61s.91-2.58.91-4.27v-.46h-7.42Z"/>
    <polygon class="cls-1" points="878.75 712.82 885.05 712.82 885.05 710.2 878.75 710.2 878.75 707.3 885.65 707.3 885.65 704.6 878.75 704.6 878.01 704.6 875.61 704.6 875.61 718.72 878.01 718.72 878.75 718.72 885.75 718.72 885.75 716 878.75 716 878.75 712.82"/>
    <polygon class="cls-1" points="891.05 704.6 887.91 704.6 887.91 718.72 890.33 718.72 891.05 718.72 897.31 718.72 897.31 715.96 891.05 715.96 891.05 704.6"/>
    <polygon class="cls-1" points="902.27 712.82 908.57 712.82 908.57 710.2 902.27 710.2 902.27 707.3 909.17 707.3 909.17 704.6 902.27 704.6 901.53 704.6 899.13 704.6 899.13 718.72 901.53 718.72 902.27 718.72 909.27 718.72 909.27 716 902.27 716 902.27 712.82"/>
    <path class="cls-1" d="M919.73,715.74c-.53.23-1.16.34-1.88.34-.61,0-1.18-.11-1.69-.32-.51-.21-.95-.51-1.32-.9-.37-.39-.65-.85-.86-1.4-.21-.55-.31-1.15-.31-1.82s.1-1.25.31-1.8c.21-.55.49-1.01.86-1.4.37-.39.81-.68,1.32-.89.51-.21,1.08-.31,1.69-.31.69,0,1.3.11,1.83.34.53.23.98.54,1.35.94l2.1-2.12c-.65-.63-1.42-1.12-2.29-1.48-.87-.36-1.87-.54-2.99-.54-1.05,0-2.03.18-2.93.55-.9.37-1.68.88-2.35,1.53s-1.19,1.42-1.56,2.31-.56,1.84-.56,2.87.19,1.98.56,2.87.9,1.66,1.57,2.33c.67.67,1.46,1.18,2.36,1.55s1.88.55,2.93.55c1.15,0,2.16-.18,3.03-.54.87-.36,1.65-.85,2.33-1.48l-2.12-2.12c-.39.4-.85.71-1.38.94Z"/>
    <polygon class="cls-1" points="923.77 707.34 928.19 707.34 928.19 718.72 931.33 718.72 931.33 707.34 935.75 707.34 935.75 704.6 923.77 704.6 923.77 707.34"/>
    <path class="cls-1" d="M945.71,712.38c.72-.35,1.28-.83,1.68-1.45.4-.62.6-1.34.6-2.17s-.2-1.53-.6-2.16c-.4-.63-.95-1.12-1.66-1.47-.71-.35-1.53-.53-2.46-.53h-5.76v14.12h3.14v-5.82h.33l4.21,5.82h3.72l-4.53-5.93c.48-.09.93-.22,1.33-.41ZM940.65,707.04h2.26c.63,0,1.11.17,1.44.5.33.33.5.75.5,1.26,0,.55-.17.98-.51,1.3s-.82.48-1.45.48h-2.24v-3.54Z"/>
    <path class="cls-1" d="M962.2,706.45c-.67-.66-1.46-1.17-2.36-1.54-.9-.37-1.88-.55-2.93-.55s-2.05.18-2.95.55c-.9.37-1.68.88-2.35,1.54-.67.66-1.19,1.43-1.56,2.31-.37.88-.56,1.84-.56,2.88s.19,1.98.56,2.87c.37.89.9,1.66,1.58,2.33.68.67,1.47,1.19,2.37,1.56.9.37,1.88.56,2.95.56s2.01-.19,2.91-.56,1.68-.89,2.35-1.55c.67-.66,1.19-1.43,1.56-2.32.37-.89.56-1.84.56-2.87s-.19-2-.56-2.89-.9-1.66-1.57-2.32ZM960.59,713.97c-.35.67-.84,1.2-1.47,1.57-.63.37-1.37.56-2.21.56-.63,0-1.2-.11-1.72-.32-.52-.21-.96-.52-1.33-.91-.37-.39-.65-.86-.85-1.41-.2-.55-.3-1.15-.3-1.82,0-.89.17-1.67.52-2.33s.84-1.17,1.47-1.54c.63-.37,1.37-.55,2.21-.55.63,0,1.2.1,1.71.31.51.21.96.51,1.33.9s.66.86.86,1.4.3,1.14.3,1.81c0,.88-.17,1.66-.52,2.33Z"/>
    <path class="cls-1" d="M977.3,706.57c-.67-.63-1.46-1.12-2.36-1.46-.9-.34-1.88-.51-2.95-.51h-5.66v14.12h5.7c1.05,0,2.03-.17,2.93-.52.9-.35,1.68-.83,2.35-1.46.67-.63,1.18-1.37,1.55-2.24.37-.87.55-1.81.55-2.84s-.18-1.99-.55-2.85c-.37-.86-.89-1.61-1.56-2.24ZM975.67,713.96c-.35.65-.84,1.15-1.48,1.49-.64.34-1.39.51-2.24.51h-2.48v-8.62h2.48c.85,0,1.6.17,2.23.52.63.35,1.13.84,1.48,1.48.35.64.53,1.41.53,2.3s-.17,1.67-.52,2.32Z"/>
    <polygon class="cls-1" points="984.55 712.82 990.85 712.82 990.85 710.2 984.55 710.2 984.55 707.3 991.45 707.3 991.45 704.6 984.55 704.6 983.81 704.6 981.41 704.6 981.41 718.72 983.81 718.72 984.55 718.72 991.55 718.72 991.55 716 984.55 716 984.55 712.82"/>
  </g>
  <g>
    <path class="cls-1" d="M1080.98,688.38c.72-.35,1.28-.83,1.68-1.45.4-.62.6-1.34.6-2.17s-.2-1.53-.6-2.16c-.4-.63-.95-1.12-1.66-1.47-.71-.35-1.53-.53-2.46-.53h-5.76v14.12h3.14v-5.82h.33l4.21,5.82h3.72l-4.53-5.93c.48-.09.93-.22,1.33-.41ZM1075.92,683.04h2.26c.63,0,1.11.17,1.44.5.33.33.5.75.5,1.26,0,.55-.17.98-.51,1.3s-.82.48-1.45.48h-2.24v-3.54Z"/>
    <polygon class="cls-1" points="1088.68 688.82 1094.98 688.82 1094.98 686.2 1088.68 686.2 1088.68 683.3 1095.58 683.3 1095.58 680.6 1088.68 680.6 1087.94 680.6 1085.54 680.6 1085.54 694.72 1087.94 694.72 1088.68 694.72 1095.68 694.72 1095.68 692 1088.68 692 1088.68 688.82"/>
    <path class="cls-1" d="M1107.52,690.8c-.39.4-.85.71-1.38.94-.53.23-1.16.34-1.88.34-.61,0-1.18-.11-1.69-.32-.51-.21-.95-.51-1.32-.9-.37-.39-.65-.85-.86-1.4s-.31-1.15-.31-1.82.1-1.25.31-1.8.49-1.01.86-1.4c.37-.39.81-.68,1.32-.89.51-.21,1.08-.31,1.69-.31.69,0,1.3.11,1.83.34s.98.54,1.35.94l2.1-2.12c-.65-.63-1.42-1.12-2.29-1.48-.87-.36-1.87-.54-2.99-.54-1.05,0-2.03.18-2.93.55-.9.37-1.68.88-2.35,1.53-.67.65-1.19,1.42-1.56,2.31s-.56,1.84-.56,2.87.19,1.98.56,2.87.9,1.66,1.57,2.33c.67.67,1.46,1.18,2.36,1.55.9.37,1.88.55,2.93.55,1.15,0,2.16-.18,3.03-.54.87-.36,1.65-.85,2.33-1.48l-2.12-2.12Z"/>
    <path class="cls-1" d="M1112.22,692.84c.68.67,1.47,1.19,2.37,1.56.9.37,1.88.56,2.95.56s2.01-.19,2.91-.56c.9-.37,1.68-.89,2.35-1.55.67-.66,1.19-1.43,1.56-2.32.37-.89.56-1.84.56-2.87s-.19-2-.56-2.89-.9-1.66-1.57-2.32c-.67-.66-1.46-1.17-2.36-1.54-.9-.37-1.88-.55-2.93-.55s-2.05.18-2.95.55c-.9.37-1.68.88-2.35,1.54-.67.66-1.19,1.43-1.56,2.31s-.56,1.84-.56,2.88.19,1.98.56,2.87.9,1.66,1.58,2.33ZM1113.82,685.31c.35-.66.84-1.17,1.47-1.54.63-.37,1.37-.55,2.21-.55.63,0,1.2.1,1.71.31.51.21.96.51,1.33.9.37.39.66.86.86,1.4s.3,1.14.3,1.81c0,.88-.17,1.66-.52,2.33-.35.67-.84,1.2-1.47,1.57-.63.37-1.37.56-2.21.56-.63,0-1.2-.11-1.72-.32-.52-.21-.96-.52-1.33-.91-.37-.39-.65-.86-.85-1.41s-.3-1.15-.3-1.82c0-.89.17-1.67.52-2.33Z"/>
    <path class="cls-1" d="M1133.79,688.79c.48-.09.93-.22,1.33-.41.72-.35,1.28-.83,1.68-1.45s.6-1.34.6-2.17-.2-1.53-.6-2.16c-.4-.63-.95-1.12-1.66-1.47s-1.53-.53-2.46-.53h-5.76v14.12h3.14v-5.82h.33l4.21,5.82h3.72l-4.53-5.93ZM1130.06,683.04h2.26c.63,0,1.11.17,1.44.5s.5.75.5,1.26c0,.55-.17.98-.51,1.3s-.82.48-1.45.48h-2.24v-3.54Z"/>
    <path class="cls-1" d="M1142.82,694.72h2.56c1.05,0,2.03-.17,2.93-.52s1.68-.83,2.35-1.46c.67-.63,1.18-1.37,1.55-2.24.37-.87.55-1.81.55-2.84s-.18-1.99-.55-2.85c-.37-.86-.89-1.61-1.56-2.24-.67-.63-1.46-1.12-2.36-1.46-.9-.34-1.88-.51-2.95-.51h-5.66v14.12h3.14ZM1145.3,683.34c.85,0,1.6.17,2.23.52.63.35,1.13.84,1.48,1.48.35.64.53,1.41.53,2.3s-.17,1.67-.52,2.32-.84,1.15-1.48,1.49c-.64.34-1.39.51-2.24.51h-2.48v-8.62h2.48Z"/>
    <rect class="cls-1" x="1154.76" y="680.6" width="3.14" height="14.12"/>
    <polygon class="cls-1" points="1163.76 686.26 1170.36 694.72 1172.66 694.72 1172.66 680.6 1169.52 680.6 1169.52 689.18 1162.82 680.6 1160.62 680.6 1160.62 694.72 1163.76 694.72 1163.76 686.26"/>
    <path class="cls-1" d="M1181.76,686.72v2.66l4.05.06c-.08.29-.17.56-.3.81-.31.59-.76,1.05-1.34,1.36-.58.31-1.28.47-2.11.47s-1.53-.19-2.16-.56c-.63-.37-1.12-.89-1.48-1.56-.36-.67-.54-1.44-.54-2.32s.18-1.65.55-2.31c.37-.66.88-1.17,1.53-1.54.65-.37,1.39-.55,2.22-.55.77,0,1.47.15,2.08.44.61.29,1.15.73,1.6,1.32l2.14-2.14c-.65-.77-1.48-1.38-2.47-1.82-.99-.44-2.1-.66-3.31-.66-1.05,0-2.04.18-2.96.55-.92.37-1.72.88-2.41,1.54-.69.66-1.22,1.43-1.61,2.31-.39.88-.58,1.83-.58,2.86s.19,1.98.57,2.87.9,1.66,1.57,2.32c.67.66,1.45,1.18,2.35,1.55.9.37,1.86.56,2.89.56,1.4,0,2.64-.29,3.71-.88,1.07-.59,1.91-1.46,2.52-2.61.61-1.15.91-2.58.91-4.27v-.46h-7.42Z"/>
    <polygon class="cls-1" points="1076.02 712.82 1082.32 712.82 1082.32 710.2 1076.02 710.2 1076.02 707.3 1082.92 707.3 1082.92 704.6 1076.02 704.6 1075.28 704.6 1072.88 704.6 1072.88 718.72 1075.28 718.72 1076.02 718.72 1083.02 718.72 1083.02 716 1076.02 716 1076.02 712.82"/>
    <polygon class="cls-1" points="1088.32 704.6 1085.18 704.6 1085.18 718.72 1087.6 718.72 1088.32 718.72 1094.58 718.72 1094.58 715.96 1088.32 715.96 1088.32 704.6"/>
    <polygon class="cls-1" points="1099.54 712.82 1105.84 712.82 1105.84 710.2 1099.54 710.2 1099.54 707.3 1106.44 707.3 1106.44 704.6 1099.54 704.6 1098.8 704.6 1096.4 704.6 1096.4 718.72 1098.8 718.72 1099.54 718.72 1106.54 718.72 1106.54 716 1099.54 716 1099.54 712.82"/>
    <path class="cls-1" d="M1117,715.74c-.53.23-1.16.34-1.88.34-.61,0-1.18-.11-1.69-.32-.51-.21-.95-.51-1.32-.9-.37-.39-.65-.85-.86-1.4s-.31-1.15-.31-1.82.1-1.25.31-1.8.49-1.01.86-1.4c.37-.39.81-.68,1.32-.89.51-.21,1.08-.31,1.69-.31.69,0,1.3.11,1.83.34s.98.54,1.35.94l2.1-2.12c-.65-.63-1.42-1.12-2.29-1.48-.87-.36-1.87-.54-2.99-.54-1.05,0-2.03.18-2.93.55-.9.37-1.68.88-2.35,1.53-.67.65-1.19,1.42-1.56,2.31s-.56,1.84-.56,2.87.19,1.98.56,2.87.9,1.66,1.57,2.33c.67.67,1.46,1.18,2.36,1.55.9.37,1.88.55,2.93.55,1.15,0,2.16-.18,3.03-.54.87-.36,1.65-.85,2.33-1.48l-2.12-2.12c-.39.4-.85.71-1.38.94Z"/>
    <polygon class="cls-1" points="1121.04 707.34 1125.46 707.34 1125.46 718.72 1128.6 718.72 1128.6 707.34 1133.02 707.34 1133.02 704.6 1121.04 704.6 1121.04 707.34"/>
    <path class="cls-1" d="M1142.98,712.38c.72-.35,1.28-.83,1.68-1.45.4-.62.6-1.34.6-2.17s-.2-1.53-.6-2.16c-.4-.63-.95-1.12-1.66-1.47-.71-.35-1.53-.53-2.46-.53h-5.76v14.12h3.14v-5.82h.33l4.21,5.82h3.72l-4.53-5.93c.48-.09.93-.22,1.33-.41ZM1137.92,707.04h2.26c.63,0,1.11.17,1.44.5.33.33.5.75.5,1.26,0,.55-.17.98-.51,1.3s-.82.48-1.45.48h-2.24v-3.54Z"/>
    <path class="cls-1" d="M1159.47,706.45c-.67-.66-1.46-1.17-2.36-1.54-.9-.37-1.88-.55-2.93-.55s-2.05.18-2.95.55c-.9.37-1.68.88-2.35,1.54-.67.66-1.19,1.43-1.56,2.31s-.56,1.84-.56,2.88.19,1.98.56,2.87.9,1.66,1.58,2.33,1.47,1.19,2.37,1.56c.9.37,1.88.56,2.95.56s2.01-.19,2.91-.56c.9-.37,1.68-.89,2.35-1.55.67-.66,1.19-1.43,1.56-2.32.37-.89.56-1.84.56-2.87s-.19-2-.56-2.89-.9-1.66-1.57-2.32ZM1157.86,713.97c-.35.67-.84,1.2-1.47,1.57-.63.37-1.37.56-2.21.56-.63,0-1.2-.11-1.72-.32-.52-.21-.96-.52-1.33-.91-.37-.39-.65-.86-.85-1.41s-.3-1.15-.3-1.82c0-.89.17-1.67.52-2.33s.84-1.17,1.47-1.54c.63-.37,1.37-.55,2.21-.55.63,0,1.2.1,1.71.31.51.21.96.51,1.33.9.37.39.66.86.86,1.4s.3,1.14.3,1.81c0,.88-.17,1.66-.52,2.33Z"/>
    <path class="cls-1" d="M1174.57,706.57c-.67-.63-1.46-1.12-2.36-1.46-.9-.34-1.88-.51-2.95-.51h-5.66v14.12h5.7c1.05,0,2.03-.17,2.93-.52s1.68-.83,2.35-1.46c.67-.63,1.18-1.37,1.55-2.24.37-.87.55-1.81.55-2.84s-.18-1.99-.55-2.85c-.37-.86-.89-1.61-1.56-2.24ZM1172.94,713.96c-.35.65-.84,1.15-1.48,1.49-.64.34-1.39.51-2.24.51h-2.48v-8.62h2.48c.85,0,1.6.17,2.23.52.63.35,1.13.84,1.48,1.48.35.64.53,1.41.53,2.3s-.17,1.67-.52,2.32Z"/>
    <polygon class="cls-1" points="1181.82 712.82 1188.12 712.82 1188.12 710.2 1181.82 710.2 1181.82 707.3 1188.72 707.3 1188.72 704.6 1181.82 704.6 1181.08 704.6 1178.68 704.6 1178.68 718.72 1181.08 718.72 1181.82 718.72 1188.82 718.72 1188.82 716 1181.82 716 1181.82 712.82"/>
  </g>
  <g>
    <path class="cls-1" d="M1003.29,322.17c.72-.35,1.28-.83,1.68-1.45.4-.62.6-1.34.6-2.17s-.2-1.53-.6-2.16c-.4-.63-.95-1.12-1.66-1.47-.71-.35-1.53-.53-2.46-.53h-5.76v14.12h3.14v-5.82h.33l4.21,5.82h3.72l-4.53-5.93c.48-.09.93-.22,1.33-.41ZM998.23,316.83h2.26c.63,0,1.11.17,1.44.5.33.33.5.75.5,1.26,0,.55-.17.98-.51,1.3s-.82.48-1.45.48h-2.24v-3.54Z"/>
    <polygon class="cls-1" points="1010.99 322.61 1017.29 322.61 1017.29 319.99 1010.99 319.99 1010.99 317.09 1017.89 317.09 1017.89 314.39 1010.99 314.39 1010.25 314.39 1007.85 314.39 1007.85 328.51 1010.25 328.51 1010.99 328.51 1017.99 328.51 1017.99 325.79 1010.99 325.79 1010.99 322.61"/>
    <polygon class="cls-1" points="1027.38 322.16 1022.39 314.39 1020.15 314.39 1020.15 328.51 1023.27 328.51 1023.27 320.67 1026.33 325.47 1028.41 325.47 1031.47 320.7 1031.47 328.51 1034.61 328.51 1034.61 314.39 1032.35 314.39 1027.38 322.16"/>
    <path class="cls-1" d="M1049.3,316.24c-.67-.66-1.46-1.17-2.36-1.54-.9-.37-1.88-.55-2.93-.55s-2.05.18-2.95.55c-.9.37-1.68.88-2.35,1.54-.67.66-1.19,1.43-1.56,2.31-.37.88-.56,1.84-.56,2.88s.19,1.98.56,2.87c.37.89.9,1.66,1.58,2.33.68.67,1.47,1.19,2.37,1.56.9.37,1.88.56,2.95.56s2.01-.19,2.91-.56,1.68-.89,2.35-1.55c.67-.66,1.19-1.43,1.56-2.32.37-.89.56-1.84.56-2.87s-.19-2-.56-2.89c-.37-.89-.9-1.66-1.57-2.32ZM1047.69,323.76c-.35.67-.84,1.2-1.47,1.57-.63.37-1.37.56-2.21.56-.63,0-1.2-.11-1.72-.32-.52-.21-.96-.52-1.33-.91-.37-.39-.65-.86-.85-1.41-.2-.55-.3-1.15-.3-1.82,0-.89.17-1.67.52-2.33s.84-1.17,1.47-1.54c.63-.37,1.37-.55,2.21-.55.63,0,1.2.1,1.71.31.51.21.96.51,1.33.9s.66.86.86,1.4.3,1.14.3,1.81c0,.88-.17,1.66-.52,2.33Z"/>
    <polygon class="cls-1" points="1051.73 317.13 1056.15 317.13 1056.15 328.51 1059.29 328.51 1059.29 317.13 1063.71 317.13 1063.71 314.39 1051.73 314.39 1051.73 317.13"/>
    <polygon class="cls-1" points="1068.61 322.61 1074.91 322.61 1074.91 319.99 1068.61 319.99 1068.61 317.09 1075.51 317.09 1075.51 314.39 1068.61 314.39 1067.87 314.39 1065.47 314.39 1065.47 328.51 1067.87 328.51 1068.61 328.51 1075.61 328.51 1075.61 325.79 1068.61 325.79 1068.61 322.61"/>
    <polygon class="cls-1" points="1088.8 322.16 1083.81 314.39 1081.57 314.39 1081.57 328.51 1084.69 328.51 1084.69 320.67 1087.75 325.47 1089.83 325.47 1092.89 320.7 1092.89 328.51 1096.03 328.51 1096.03 314.39 1093.77 314.39 1088.8 322.16"/>
    <path class="cls-1" d="M1110.72,316.24c-.67-.66-1.46-1.17-2.36-1.54-.9-.37-1.88-.55-2.93-.55s-2.05.18-2.95.55c-.9.37-1.68.88-2.35,1.54-.67.66-1.19,1.43-1.56,2.31s-.56,1.84-.56,2.88.19,1.98.56,2.87.9,1.66,1.58,2.33,1.47,1.19,2.37,1.56c.9.37,1.88.56,2.95.56s2.01-.19,2.91-.56c.9-.37,1.68-.89,2.35-1.55.67-.66,1.19-1.43,1.56-2.32.37-.89.56-1.84.56-2.87s-.19-2-.56-2.89-.9-1.66-1.57-2.32ZM1109.11,323.76c-.35.67-.84,1.2-1.47,1.57-.63.37-1.37.56-2.21.56-.63,0-1.2-.11-1.72-.32-.52-.21-.96-.52-1.33-.91-.37-.39-.65-.86-.85-1.41s-.3-1.15-.3-1.82c0-.89.17-1.67.52-2.33s.84-1.17,1.47-1.54c.63-.37,1.37-.55,2.21-.55.63,0,1.2.1,1.71.31.51.21.96.51,1.33.9.37.39.66.86.86,1.4s.3,1.14.3,1.81c0,.88-.17,1.66-.52,2.33Z"/>
    <path class="cls-1" d="M1125.82,316.36c-.67-.63-1.46-1.12-2.36-1.46-.9-.34-1.88-.51-2.95-.51h-5.66v14.12h5.7c1.05,0,2.03-.17,2.93-.52.9-.35,1.68-.83,2.35-1.46.67-.63,1.18-1.37,1.55-2.24.37-.87.55-1.81.55-2.84s-.18-1.99-.55-2.85c-.37-.86-.89-1.61-1.56-2.24ZM1124.19,323.75c-.35.65-.84,1.15-1.48,1.49-.64.34-1.39.51-2.24.51h-2.48v-8.62h2.48c.85,0,1.6.17,2.23.52.63.35,1.13.84,1.48,1.48s.53,1.41.53,2.3-.17,1.67-.52,2.32Z"/>
    <path class="cls-1" d="M1138.31,323.15c0,.56-.12,1.04-.35,1.45-.23.41-.55.72-.95.94-.4.22-.87.33-1.4.33s-.97-.11-1.39-.33c-.42-.22-.75-.54-.99-.95-.24-.41-.36-.9-.36-1.46v-8.74h-3.16v8.56c0,1.12.25,2.12.75,2.99.5.87,1.19,1.56,2.08,2.05s1.91.74,3.07.74,2.18-.25,3.06-.74,1.57-1.17,2.06-2.04c.49-.87.74-1.86.74-2.98v-8.58h-3.16v8.76Z"/>
    <polygon class="cls-1" points="1147.11 314.39 1143.97 314.39 1143.97 328.51 1146.39 328.51 1147.11 328.51 1153.37 328.51 1153.37 325.75 1147.11 325.75 1147.11 314.39"/>
    <polygon class="cls-1" points="1158.33 325.79 1158.33 322.61 1164.63 322.61 1164.63 319.99 1158.33 319.99 1158.33 317.09 1165.23 317.09 1165.23 314.39 1158.33 314.39 1157.59 314.39 1155.19 314.39 1155.19 328.51 1157.59 328.51 1158.33 328.51 1165.33 328.51 1165.33 325.79 1158.33 325.79"/>
  </g>
  <g>
    <path class="cls-1" d="M1003.74,348.41c-.34-.26-.71-.48-1.12-.65-.41-.17-.82-.33-1.23-.47-.41-.14-.79-.3-1.13-.47-.34-.17-.62-.38-.82-.62-.21-.24-.31-.56-.31-.96,0-.5.19-.89.56-1.17.37-.28.88-.42,1.51-.42.52,0,.98.1,1.39.31s.78.51,1.13.92l1.09-1.09c-.39-.49-.88-.88-1.5-1.18-.61-.3-1.3-.45-2.07-.45-.7,0-1.33.13-1.9.38-.56.26-1,.62-1.33,1.09-.32.47-.48,1.04-.48,1.71,0,.6.1,1.1.31,1.5s.48.72.83.96c.34.24.71.45,1.12.61.41.17.82.32,1.22.46s.78.3,1.13.48.62.4.83.67c.2.27.31.63.31,1.07,0,.53-.21.95-.64,1.26-.42.31-.99.46-1.69.46s-1.31-.13-1.8-.4c-.49-.27-.92-.66-1.29-1.18l-1.09,1.09c.51.65,1.09,1.14,1.75,1.48s1.45.51,2.38.51c1.22,0,2.2-.29,2.92-.88s1.08-1.41,1.08-2.45c0-.62-.11-1.14-.31-1.56-.21-.41-.48-.75-.83-1.01Z"/>
    <path class="cls-1" d="M1012.27,346.4c-.57-.34-1.23-.51-1.98-.51s-1.49.18-2.12.55-1.13.87-1.5,1.5c-.37.64-.55,1.35-.55,2.14s.19,1.52.56,2.16.88,1.14,1.53,1.5c.65.37,1.37.55,2.18.55.63,0,1.23-.12,1.79-.36.56-.24,1.03-.58,1.42-1.04l-.99-1c-.27.32-.6.55-.98.71-.38.16-.8.24-1.25.24-.54,0-1.03-.12-1.45-.35s-.74-.56-.97-.99c-.14-.26-.22-.55-.27-.86h6.31c.03-.17.06-.32.07-.45.01-.13.02-.25.02-.37,0-.76-.16-1.44-.48-2.04s-.77-1.07-1.34-1.41ZM1008.87,347.64c.4-.23.86-.34,1.38-.34s.92.1,1.27.31.62.5.82.88c.13.26.2.56.24.89h-4.88c.05-.29.13-.56.26-.8.21-.41.52-.73.92-.95Z"/>
    <path class="cls-1" d="M1021.48,346.35c-.47-.31-1.01-.46-1.62-.46s-1.16.14-1.65.42c-.38.21-.67.51-.92.84v-1.09h-1.53v8.08h1.53v-4.71c0-.41.09-.77.27-1.09.18-.32.43-.57.75-.75s.68-.27,1.09-.27c.61,0,1.11.2,1.5.6.39.4.58.9.58,1.51v4.71h1.53v-5.01c0-.56-.14-1.08-.41-1.57-.27-.49-.64-.89-1.11-1.2Z"/>
    <path class="cls-1" d="M1027.66,347.29c.42,0,.8.08,1.13.24.33.16.61.39.84.68l.99-.99c-.32-.44-.72-.77-1.21-.99-.49-.22-1.06-.33-1.69-.33-.6,0-1.11.1-1.54.29-.42.19-.76.47-.99.82-.24.36-.36.78-.36,1.27s.1.88.31,1.17c.21.29.48.53.81.7.33.17.68.31,1.05.42.37.11.72.21,1.04.32.33.11.6.24.81.41.21.17.31.39.31.69s-.13.52-.39.69c-.26.17-.63.25-1.11.25s-.91-.09-1.29-.26c-.38-.18-.73-.45-1.02-.81l-.99.99c.25.31.54.57.88.79s.71.39,1.11.51.83.18,1.28.18c.91,0,1.63-.22,2.17-.66.54-.44.81-1.04.81-1.8,0-.5-.1-.9-.31-1.21s-.48-.55-.81-.73c-.33-.18-.67-.33-1.04-.43-.36-.11-.71-.21-1.04-.32-.33-.1-.6-.23-.81-.37-.2-.15-.31-.36-.31-.63s.12-.48.35-.64c.23-.15.57-.23,1.01-.23Z"/>
    <rect class="cls-1" x="1032.35" y="346.06" width="1.53" height="8.08"/>
    <path class="cls-1" d="M1033.12,342.49c-.28,0-.52.09-.7.28-.18.19-.27.42-.27.69s.09.52.27.71c.18.19.41.28.7.28s.52-.09.7-.28c.18-.19.27-.42.27-.71s-.09-.5-.27-.69c-.18-.19-.41-.28-.7-.28Z"/>
    <path class="cls-1" d="M1041.86,346.35c-.47-.31-1.01-.46-1.62-.46s-1.16.14-1.65.42c-.38.21-.67.51-.92.84v-1.09h-1.53v8.08h1.53v-4.71c0-.41.09-.77.27-1.09.18-.32.43-.57.75-.75s.68-.27,1.09-.27c.61,0,1.11.2,1.5.6.38.4.58.9.58,1.51v4.71h1.53v-5.01c0-.56-.14-1.08-.41-1.57-.27-.49-.64-.89-1.11-1.2Z"/>
    <path class="cls-1" d="M1051.53,347.16c-.27-.37-.61-.68-1.04-.9-.49-.25-1.05-.37-1.68-.37-.74,0-1.4.18-1.98.54-.58.36-1.05.84-1.39,1.45s-.51,1.29-.51,2.07.17,1.46.51,2.08c.34.62.8,1.1,1.39,1.45.58.35,1.24.53,1.98.53.62,0,1.18-.12,1.67-.37.43-.22.78-.54,1.05-.92v1.1c0,.74-.24,1.32-.72,1.76s-1.14.65-1.96.65c-.62,0-1.16-.11-1.61-.33-.45-.22-.84-.54-1.17-.96l-.99,1c.38.56.9.99,1.54,1.29.64.31,1.37.46,2.2.46s1.58-.16,2.22-.49c.64-.33,1.14-.78,1.5-1.36.36-.58.54-1.25.54-2.02v-7.75h-1.53v1.1ZM1050.43,352.23c-.38.22-.82.32-1.32.32s-.96-.11-1.35-.33c-.39-.22-.7-.53-.92-.93s-.33-.85-.33-1.36.11-.96.33-1.35c.22-.39.52-.7.91-.92.39-.22.83-.33,1.34-.33s.95.11,1.33.33c.37.22.67.53.88.92.21.39.31.85.31,1.37s-.1.98-.31,1.37c-.2.39-.5.69-.88.91Z"/>
    <path class="cls-1" d="M1064.66,346.45c-.64-.37-1.35-.55-2.13-.55s-1.51.19-2.14.56-1.14.88-1.51,1.5-.56,1.33-.56,2.12.19,1.51.56,2.15c.37.64.88,1.15,1.51,1.52s1.35.56,2.14.56,1.49-.19,2.13-.56c.64-.37,1.15-.88,1.52-1.52.37-.64.56-1.36.56-2.15s-.19-1.49-.56-2.12c-.37-.63-.88-1.14-1.52-1.5ZM1064.82,351.49c-.23.41-.54.74-.94.98s-.85.36-1.36.36-.96-.12-1.36-.36-.71-.56-.93-.98c-.23-.41-.34-.89-.34-1.42s.11-.99.34-1.39c.23-.41.54-.73.93-.96.4-.23.85-.35,1.36-.35s.96.12,1.35.35c.39.23.7.55.93.96s.35.87.35,1.39-.11,1.01-.34,1.42Z"/>
    <path class="cls-1" d="M1072.18,345.89c-.9,0-1.58.31-2.06.92-.05.07-.09.15-.14.22v-.97h-1.53v8.08h1.53v-4.61c0-.74.18-1.29.54-1.65.36-.36.83-.54,1.39-.54.27,0,.51.04.71.12s.39.21.56.39l1-1.04c-.28-.33-.59-.56-.92-.71-.33-.14-.7-.21-1.11-.21Z"/>
    <path class="cls-1" d="M1085.53,348.41c-.34-.26-.71-.48-1.12-.65s-.82-.33-1.23-.47c-.41-.14-.79-.3-1.13-.47-.34-.17-.61-.38-.82-.62-.21-.24-.31-.56-.31-.96,0-.5.19-.89.56-1.17.37-.28.88-.42,1.51-.42.52,0,.98.1,1.39.31.4.2.78.51,1.13.92l1.09-1.09c-.38-.49-.88-.88-1.5-1.18-.61-.3-1.3-.45-2.07-.45-.7,0-1.33.13-1.9.38-.56.26-1,.62-1.33,1.09-.32.47-.48,1.04-.48,1.71,0,.6.1,1.1.31,1.5.21.4.48.72.82.96.34.24.71.45,1.12.61.41.17.82.32,1.22.46.41.14.79.3,1.13.48s.62.4.82.67c.2.27.31.63.31,1.07,0,.53-.21.95-.64,1.26-.42.31-.99.46-1.69.46s-1.32-.13-1.8-.4c-.49-.27-.92-.66-1.29-1.18l-1.09,1.09c.51.65,1.09,1.14,1.75,1.48s1.45.51,2.38.51c1.22,0,2.2-.29,2.92-.88s1.08-1.41,1.08-2.45c0-.62-.1-1.14-.31-1.56-.21-.41-.48-.75-.82-1.01Z"/>
    <polygon class="cls-1" points="1091.32 342.68 1089.79 342.68 1089.79 346.06 1087.8 346.06 1087.8 347.46 1089.79 347.46 1089.79 354.14 1091.32 354.14 1091.32 347.46 1093.31 347.46 1093.31 346.06 1091.32 346.06 1091.32 342.68"/>
    <path class="cls-1" d="M1095.59,342.49c-.28,0-.52.09-.7.28-.18.19-.27.42-.27.69s.09.52.27.71c.18.19.41.28.7.28s.52-.09.7-.28c.18-.19.27-.42.27-.71s-.09-.5-.27-.69c-.18-.19-.41-.28-.7-.28Z"/>
    <rect class="cls-1" x="1094.82" y="346.06" width="1.53" height="8.08"/>
    <path class="cls-1" d="M1109.55,346.27c-.46-.25-.99-.37-1.58-.37s-1.09.13-1.56.38-.86.61-1.16,1.05c0,.01,0,.02-.02.03,0-.01,0-.03-.02-.04-.27-.45-.63-.8-1.09-1.05-.46-.25-.97-.37-1.54-.37s-1.1.13-1.56.38c-.35.19-.63.46-.87.77v-.98h-1.53v8.08h1.53v-4.9c0-.4.09-.74.27-1.02.18-.28.42-.5.71-.66.29-.16.63-.24,1-.24.55,0,1.02.17,1.38.52s.55.82.55,1.42v4.88h1.53v-4.9c0-.4.09-.74.27-1.02.18-.28.42-.5.72-.66.3-.16.64-.24,1.01-.24.54,0,1,.17,1.37.52s.55.82.55,1.42v4.88h1.55v-5.18c0-.63-.14-1.18-.42-1.63-.28-.45-.65-.8-1.11-1.05Z"/>
    <path class="cls-1" d="M1118.34,350.69c0,.67-.17,1.19-.51,1.57-.34.38-.81.57-1.41.57-.4,0-.74-.08-1.04-.26-.29-.17-.52-.42-.67-.74-.15-.32-.23-.71-.23-1.15v-4.62h-1.53v4.69c0,.7.15,1.32.44,1.85.29.53.71.95,1.23,1.25.53.3,1.12.45,1.79.45s1.28-.15,1.79-.45c.52-.3.92-.72,1.21-1.25.29-.53.44-1.15.44-1.85v-4.69h-1.53v4.62Z"/>
    <rect class="cls-1" x="1121.92" y="342" width="1.53" height="12.14"/>
    <path class="cls-1" d="M1131.82,347.19c-.28-.38-.62-.69-1.05-.92-.48-.25-1.03-.38-1.64-.38-.75,0-1.42.19-2.01.56-.59.37-1.07.88-1.41,1.51s-.52,1.35-.52,2.14.17,1.51.52,2.14.82,1.14,1.42,1.5c.6.37,1.27.55,2.01.55.62,0,1.18-.13,1.66-.38.42-.22.76-.54,1.03-.91v1.12h1.55v-8.08h-1.55v1.13ZM1131.22,352.09c-.46.52-1.08.77-1.84.77-.51,0-.96-.12-1.36-.36-.4-.24-.71-.56-.93-.98s-.33-.89-.33-1.44.11-1.01.33-1.42c.22-.41.53-.74.92-.98.39-.24.84-.36,1.35-.36s.96.12,1.34.35c.38.23.68.55.89.97s.31.9.31,1.45c0,.8-.23,1.46-.7,1.98Z"/>
    <polygon class="cls-1" points="1138.33 342.68 1136.8 342.68 1136.8 346.06 1134.81 346.06 1134.81 347.46 1136.8 347.46 1136.8 354.14 1138.33 354.14 1138.33 347.46 1140.32 347.46 1140.32 346.06 1138.33 346.06 1138.33 342.68"/>
    <path class="cls-1" d="M1142.59,342.49c-.28,0-.52.09-.7.28-.18.19-.27.42-.27.69s.09.52.27.71c.18.19.41.28.7.28s.52-.09.7-.28c.18-.19.27-.42.27-.71s-.09-.5-.27-.69c-.18-.19-.41-.28-.7-.28Z"/>
    <rect class="cls-1" x="1141.83" y="346.06" width="1.53" height="8.08"/>
    <path class="cls-1" d="M1151.34,346.35c-.47-.31-1.01-.46-1.62-.46s-1.16.14-1.65.42c-.38.21-.67.51-.92.84v-1.09h-1.53v8.08h1.53v-4.71c0-.41.09-.77.27-1.09.18-.32.43-.57.75-.75s.68-.27,1.09-.27c.61,0,1.11.2,1.5.6.39.4.58.9.58,1.51v4.71h1.53v-5.01c0-.56-.14-1.08-.41-1.57-.27-.49-.64-.89-1.11-1.2Z"/>
    <path class="cls-1" d="M1161,346.06v1.1c-.27-.37-.61-.68-1.04-.9-.49-.25-1.05-.37-1.68-.37-.74,0-1.4.18-1.98.54-.58.36-1.05.84-1.39,1.45s-.51,1.29-.51,2.07.17,1.46.51,2.08c.34.62.8,1.1,1.39,1.45.58.35,1.24.53,1.98.53.62,0,1.18-.12,1.67-.37.43-.22.78-.54,1.05-.92v1.1c0,.74-.24,1.32-.72,1.76-.48.44-1.14.65-1.96.65-.62,0-1.16-.11-1.62-.33-.45-.22-.84-.54-1.17-.96l-.99,1c.39.56.9.99,1.54,1.29.64.31,1.37.46,2.2.46s1.58-.16,2.22-.49c.64-.33,1.14-.78,1.5-1.36.36-.58.54-1.25.54-2.02v-7.75h-1.53ZM1159.91,352.23c-.38.22-.82.32-1.32.32s-.96-.11-1.35-.33c-.39-.22-.7-.53-.92-.93-.22-.4-.33-.85-.33-1.36s.11-.96.33-1.35c.22-.39.52-.7.91-.92.38-.22.83-.33,1.34-.33s.95.11,1.33.33c.37.22.67.53.88.92.21.39.31.85.31,1.37s-.1.98-.31,1.37-.5.69-.88.91Z"/>
  </g>
  <path class="cls-1" d="M773.39,47.52h73.15c29.49,0,53.42,23.94,53.42,53.42v166.75c0,29.49-23.94,53.42-53.42,53.42h-73.15c-29.49,0-53.42-23.94-53.42-53.42V100.94c0-29.49,23.94-53.42,53.42-53.42Z"/>
  <rect class="cls-1" x="1036.8" y="87.11" width="86.4" height="201.6" rx="31.72" ry="31.72"/>
  <g>
    <path class="cls-1" d="M466.44,781.2c-.5-.3-1.07-.44-1.73-.44s-1.21.15-1.72.44c-.5.3-.9.7-1.18,1.21-.28.51-.42,1.1-.42,1.78s.14,1.27.42,1.8c.28.53.67.94,1.18,1.24s1.08.44,1.72.44,1.24-.15,1.74-.44.9-.71,1.18-1.24c.28-.53.42-1.13.42-1.8s-.14-1.26-.43-1.78c-.29-.51-.68-.92-1.18-1.21Z"/>
    <path class="cls-1" d="M480.39,781.15c-.49-.3-1.05-.44-1.69-.44s-1.23.15-1.72.44c-.49.3-.87.71-1.15,1.24-.28.53-.42,1.14-.42,1.82s.14,1.3.42,1.82c.28.53.66.94,1.15,1.24.49.3,1.05.44,1.69.44s1.23-.15,1.72-.44c.49-.3.87-.71,1.14-1.24.27-.53.41-1.14.41-1.82s-.14-1.3-.41-1.82c-.27-.53-.65-.94-1.14-1.24Z"/>
    <path class="cls-1" d="M543.81,781.2c-.5-.3-1.07-.44-1.73-.44s-1.21.15-1.72.44c-.5.3-.9.7-1.18,1.21-.28.51-.42,1.1-.42,1.78s.14,1.27.42,1.8c.28.53.67.94,1.18,1.24s1.08.44,1.72.44,1.24-.15,1.74-.44.9-.71,1.18-1.24c.28-.53.42-1.13.42-1.8s-.14-1.26-.43-1.78c-.29-.51-.68-.92-1.18-1.21Z"/>
    <path class="cls-1" d="M431.3,781.2c-.5-.3-1.07-.44-1.73-.44s-1.21.15-1.72.44c-.5.3-.9.7-1.18,1.21-.28.51-.42,1.1-.42,1.78s.14,1.27.42,1.8c.28.53.67.94,1.18,1.24s1.08.44,1.72.44,1.24-.15,1.74-.44.9-.71,1.18-1.24c.28-.53.42-1.13.42-1.8s-.14-1.26-.43-1.78c-.29-.51-.68-.92-1.18-1.21Z"/>
    <path class="cls-1" d="M988.08,778.48c-.44-.46-.96-.82-1.56-1.07-.6-.25-1.28-.37-2.02-.37-.97,0-1.82.22-2.56.65s-1.32,1.04-1.74,1.82-.63,1.68-.63,2.71c0,.78.12,1.49.36,2.13s.58,1.2,1.01,1.65c.43.46.95.81,1.56,1.06.61.25,1.27.37,1.99.37,1,0,1.86-.22,2.6-.66.73-.44,1.31-1.05,1.73-1.83s.63-1.69.63-2.73c0-.76-.12-1.46-.35-2.09-.23-.63-.57-1.18-1.01-1.64Z"/>
    <path class="cls-1" d="M681.01,781.15c-.49-.3-1.06-.44-1.72-.44s-1.2.15-1.69.44c-.49.3-.87.71-1.15,1.24-.28.53-.42,1.14-.42,1.82s.14,1.3.42,1.82c.28.53.66.94,1.15,1.24.49.3,1.05.44,1.69.44.98,0,1.76-.33,2.36-.98.6-.66.9-1.5.9-2.52,0-.69-.14-1.3-.41-1.82-.27-.53-.65-.94-1.14-1.24Z"/>
    <path class="cls-1" d="M394.98,781.02c-.44-.26-.98-.38-1.62-.38-.67,0-1.26.14-1.75.43s-.88.69-1.15,1.21c-.12.23-.2.49-.27.76h6.11c-.07-.34-.16-.65-.3-.91-.24-.48-.58-.85-1.02-1.1Z"/>
    <path class="cls-1" d="M709.11,781.15c-.49-.3-1.05-.44-1.69-.44s-1.23.15-1.72.44c-.49.3-.87.71-1.15,1.24-.28.53-.42,1.14-.42,1.82s.14,1.3.42,1.82c.28.53.66.94,1.15,1.24.49.3,1.05.44,1.69.44s1.23-.15,1.72-.44c.49-.3.87-.71,1.14-1.24.27-.53.41-1.14.41-1.82s-.14-1.3-.41-1.82c-.27-.53-.65-.94-1.14-1.24Z"/>
    <path class="cls-1" d="M577.21,781.15c-.49-.3-1.05-.44-1.69-.44s-1.21.15-1.7.44c-.5.3-.88.71-1.15,1.24s-.41,1.14-.41,1.82.14,1.3.41,1.82c.27.53.66.94,1.15,1.24.5.3,1.06.44,1.7.44s1.2-.15,1.69-.44c.49-.3.87-.71,1.15-1.24.28-.53.42-1.14.42-1.82s-.14-1.3-.42-1.82-.66-.94-1.15-1.24Z"/>
    <path class="cls-1" d="M630.38,781.2c-.5-.3-1.07-.44-1.73-.44s-1.21.15-1.72.44c-.5.3-.9.7-1.18,1.21-.28.51-.42,1.1-.42,1.78s.14,1.27.42,1.8c.28.53.67.94,1.18,1.24s1.08.44,1.72.44,1.24-.15,1.74-.44.9-.71,1.18-1.24c.28-.53.42-1.13.42-1.8s-.14-1.26-.43-1.78c-.29-.51-.68-.92-1.18-1.21Z"/>
    <path class="cls-1" d="M597.2,781.15c-.49-.3-1.06-.44-1.72-.44s-1.2.15-1.69.44c-.49.3-.87.71-1.15,1.24-.28.53-.42,1.14-.42,1.82s.14,1.3.42,1.82c.28.53.66.94,1.15,1.24.49.3,1.05.44,1.69.44.98,0,1.76-.33,2.36-.98.6-.66.9-1.5.9-2.52,0-.69-.14-1.3-.41-1.82-.27-.53-.65-.94-1.14-1.24Z"/>
    <path class="cls-1" d="M513.73,781.15c-.49-.3-1.06-.44-1.72-.44s-1.2.15-1.69.44c-.49.3-.87.71-1.15,1.24-.28.53-.42,1.14-.42,1.82s.14,1.3.42,1.82c.28.53.66.94,1.15,1.24.49.3,1.05.44,1.69.44.98,0,1.76-.33,2.36-.98.6-.66.9-1.5.9-2.52,0-.69-.14-1.3-.41-1.82-.27-.53-.65-.94-1.14-1.24Z"/>
    <path class="cls-1" d="M740.75,781.2c-.5-.3-1.07-.44-1.73-.44s-1.21.15-1.72.44c-.5.3-.9.7-1.18,1.21-.28.51-.42,1.1-.42,1.78s.14,1.27.42,1.8c.28.53.67.94,1.18,1.24s1.08.44,1.72.44,1.24-.15,1.74-.44.9-.71,1.18-1.24c.28-.53.42-1.13.42-1.8s-.14-1.26-.43-1.78c-.29-.51-.68-.92-1.18-1.21Z"/>
    <path class="cls-1" d="M1093.41,779.06c0-.6-.2-1.1-.6-1.51s-.97-.61-1.71-.61h-2.79v4.22h2.79c.73,0,1.3-.19,1.71-.56s.6-.89.6-1.55Z"/>
    <path class="cls-1" d="M0,759.78v43.2h1260v-43.2H0ZM112.9,789.97h-1.54l-2.69-6.86-2.69,6.86h-1.54l-4.63-11.52h2.74l2.71,7.28,2.64-7.28h1.54l2.64,7.28,2.71-7.28h2.74l-4.63,11.52ZM129.9,787.24c-.54.91-1.26,1.64-2.17,2.17-.91.54-1.94.8-3.07.8s-2.14-.27-3.05-.8c-.91-.54-1.64-1.26-2.17-2.17-.54-.91-.8-1.93-.8-3.05s.27-2.13.8-3.02c.54-.9,1.26-1.61,2.17-2.15s1.93-.8,3.05-.8,2.16.26,3.07.79c.91.53,1.64,1.24,2.17,2.15.54.9.8,1.92.8,3.04s-.27,2.14-.8,3.05ZM140.14,781.31c-.21-.22-.44-.38-.7-.48-.26-.1-.55-.14-.89-.14-.74,0-1.34.23-1.82.7-.48.46-.72,1.19-.72,2.18v6.41h-2.64v-11.52h2.64v1.22s.04-.07.06-.1c.65-.9,1.63-1.36,2.94-1.36.58,0,1.1.1,1.56.31.46.21.9.54,1.3,1.01l-1.73,1.78ZM146.26,789.97h-2.64v-17.28h2.64v17.28ZM160.66,789.97h-2.64v-1.31c-.33.39-.71.73-1.18.99-.69.38-1.47.56-2.35.56-1.04,0-1.98-.26-2.82-.79-.84-.53-1.5-1.24-1.99-2.15-.49-.9-.73-1.92-.73-3.04s.24-2.16.73-3.06,1.15-1.62,1.99-2.16,1.78-.8,2.82-.8c.88,0,1.66.19,2.34.56.47.26.85.61,1.19,1.01v-7.09h2.64v17.28ZM166.35,779.08h-1.68l-.6-6.38h2.88l-.6,6.38ZM171.99,782.29c.29.18.66.33,1.12.46s.94.27,1.44.42.98.36,1.44.62c.46.26.83.62,1.12,1.06.29.44.43,1.01.43,1.72,0,1.12-.39,2.01-1.18,2.66-.78.66-1.85.98-3.19.98-.64,0-1.26-.08-1.85-.25s-1.14-.41-1.63-.72c-.5-.31-.93-.69-1.3-1.14l1.68-1.68c.4.46.86.81,1.38,1.04.52.23,1.11.35,1.76.35.59,0,1.04-.09,1.34-.26s.46-.43.46-.77-.14-.62-.43-.82c-.29-.19-.66-.36-1.12-.49s-.94-.28-1.44-.42c-.5-.14-.98-.34-1.44-.59s-.83-.59-1.12-1.02c-.29-.43-.43-.99-.43-1.68,0-.74.17-1.37.52-1.9.34-.53.83-.94,1.46-1.22s1.39-.43,2.27-.43c.93,0,1.75.16,2.46.49s1.31.82,1.79,1.48l-1.68,1.68c-.34-.42-.72-.73-1.15-.94-.43-.21-.93-.31-1.49-.31-.53,0-.94.08-1.22.24-.29.16-.43.39-.43.7,0,.32.14.57.43.74ZM196.66,789.97h-2.64v-9.12h-4.32v9.12h-2.64v-9.12h-2.76v-2.4h2.76v-1.99c0-.77.17-1.45.52-2.05.34-.6.82-1.08,1.43-1.43.61-.35,1.32-.53,2.14-.53.61,0,1.14.1,1.6.3s.88.48,1.28.85l-1.73,1.73c-.16-.13-.33-.23-.52-.3-.18-.07-.4-.11-.64-.11-.46,0-.82.14-1.07.41-.25.27-.37.64-.37,1.1v2.02h6.96v11.52ZM196.47,776.99c-.29.3-.66.46-1.13.46s-.82-.15-1.12-.46c-.3-.3-.44-.68-.44-1.13s.15-.82.44-1.13c.3-.3.67-.46,1.12-.46s.84.15,1.13.46c.29.3.43.68.43,1.13s-.14.82-.43,1.13ZM206.86,781.31c-.21-.22-.44-.38-.7-.48-.26-.1-.55-.14-.89-.14-.74,0-1.34.23-1.82.7-.48.46-.72,1.19-.72,2.18v6.41h-2.64v-11.52h2.64v1.22s.04-.07.06-.1c.65-.9,1.63-1.36,2.94-1.36.58,0,1.1.1,1.56.31.46.21.9.54,1.3,1.01l-1.73,1.78ZM212.69,782.29c.29.18.66.33,1.12.46s.94.27,1.44.42.98.36,1.44.62c.46.26.83.62,1.12,1.06.29.44.43,1.01.43,1.72,0,1.12-.39,2.01-1.18,2.66-.78.66-1.85.98-3.19.98-.64,0-1.26-.08-1.85-.25s-1.14-.41-1.63-.72c-.5-.31-.93-.69-1.3-1.14l1.68-1.68c.4.46.86.81,1.38,1.04.52.23,1.11.35,1.76.35.59,0,1.04-.09,1.34-.26s.46-.43.46-.77-.14-.62-.43-.82c-.29-.19-.66-.36-1.12-.49s-.94-.28-1.44-.42c-.5-.14-.98-.34-1.44-.59s-.83-.59-1.12-1.02c-.29-.43-.43-.99-.43-1.68,0-.74.17-1.37.52-1.9.34-.53.83-.94,1.46-1.22s1.39-.43,2.27-.43c.93,0,1.75.16,2.46.49s1.31.82,1.79,1.48l-1.68,1.68c-.34-.42-.72-.73-1.15-.94-.43-.21-.93-.31-1.49-.31-.53,0-.94.08-1.22.24-.29.16-.43.39-.43.7,0,.32.14.57.43.74ZM228.05,780.85h-2.76v9.12h-2.64v-9.12h-2.76v-2.4h2.76v-4.8h2.64v4.8h2.76v2.4ZM246.25,787.24c-.54.91-1.26,1.64-2.17,2.17-.91.54-1.94.8-3.07.8s-2.14-.27-3.05-.8c-.91-.54-1.64-1.26-2.17-2.17-.54-.91-.8-1.93-.8-3.05s.27-2.13.8-3.02c.54-.9,1.26-1.61,2.17-2.15s1.93-.8,3.05-.8,2.16.26,3.07.79c.91.53,1.64,1.24,2.17,2.15.54.9.8,1.92.8,3.04s-.27,2.14-.8,3.05ZM260.7,787.27c-.49.9-1.15,1.62-1.99,2.15-.84.53-1.78.79-2.82.79-.88,0-1.66-.19-2.35-.56-.47-.26-.85-.6-1.18-.99v6.11h-2.64v-16.32h2.64v1.34c.34-.4.72-.75,1.2-1.01.69-.38,1.46-.56,2.33-.56,1.04,0,1.98.27,2.82.8s1.5,1.26,1.99,2.16c.49.9.73,1.92.73,3.06s-.24,2.13-.73,3.04ZM274.79,784.54c-.02.2-.06.42-.11.66h-8.59c.07.3.17.58.31.84.29.54.7.96,1.22,1.26.53.3,1.14.44,1.82.44.59,0,1.14-.1,1.64-.31.5-.21.93-.51,1.28-.91l1.68,1.7c-.56.66-1.24,1.15-2.04,1.49-.8.34-1.65.5-2.54.5-1.15,0-2.19-.26-3.11-.78-.92-.52-1.65-1.24-2.18-2.15-.54-.91-.8-1.94-.8-3.07s.26-2.16.79-3.06c.53-.9,1.24-1.62,2.15-2.15.9-.53,1.91-.79,3.01-.79s2.02.25,2.84.74,1.47,1.18,1.94,2.04c.47.86.71,1.85.71,2.95,0,.19-.01.39-.04.59ZM287.95,789.97h-2.64v-6.65c0-.77-.24-1.4-.73-1.9s-1.12-.74-1.88-.74c-.51,0-.97.11-1.37.34-.4.22-.71.54-.94.94-.22.4-.34.86-.34,1.37v6.65h-2.64v-11.52h2.64v1.35c.32-.39.69-.74,1.14-1,.68-.39,1.44-.59,2.29-.59s1.63.22,2.3.66c.67.44,1.2,1.01,1.58,1.7.38.7.58,1.42.58,2.17v7.22ZM298.99,782.29c.29.18.66.33,1.12.46s.94.27,1.44.42.98.36,1.44.62c.46.26.83.62,1.12,1.06.29.44.43,1.01.43,1.72,0,1.12-.39,2.01-1.18,2.66-.78.66-1.85.98-3.19.98-.64,0-1.26-.08-1.85-.25s-1.14-.41-1.63-.72c-.5-.31-.93-.69-1.3-1.14l1.68-1.68c.4.46.86.81,1.38,1.04.52.23,1.11.35,1.76.35.59,0,1.04-.09,1.34-.26s.46-.43.46-.77-.14-.62-.43-.82c-.29-.19-.66-.36-1.12-.49s-.94-.28-1.44-.42c-.5-.14-.98-.34-1.44-.59s-.83-.59-1.12-1.02c-.29-.43-.43-.99-.43-1.68,0-.74.17-1.37.52-1.9.34-.53.83-.94,1.46-1.22s1.39-.43,2.27-.43c.93,0,1.75.16,2.46.49s1.31.82,1.79,1.48l-1.68,1.68c-.34-.42-.72-.73-1.15-.94-.43-.21-.93-.31-1.49-.31-.53,0-.94.08-1.22.24-.29.16-.43.39-.43.7,0,.32.14.57.43.74ZM317.72,787.24c-.54.91-1.26,1.64-2.17,2.17-.91.54-1.94.8-3.07.8s-2.14-.27-3.05-.8c-.91-.54-1.64-1.26-2.17-2.17-.54-.91-.8-1.93-.8-3.05s.27-2.13.8-3.02c.54-.9,1.26-1.61,2.17-2.15s1.93-.8,3.05-.8,2.16.26,3.07.79c.91.53,1.64,1.24,2.17,2.15.54.9.8,1.92.8,3.04s-.27,2.14-.8,3.05ZM330.94,785.15c0,1.01-.21,1.89-.64,2.65-.42.76-1.01,1.35-1.76,1.78-.75.42-1.62.64-2.62.64s-1.84-.22-2.6-.65c-.76-.43-1.35-1.03-1.78-1.79-.42-.76-.64-1.64-.64-2.63v-6.7h2.64v6.58c0,.56.09,1.04.28,1.43.18.39.46.69.82.9.36.21.79.31,1.28.31.77,0,1.36-.23,1.76-.68s.61-1.11.61-1.96v-6.58h2.64v6.7ZM340.85,781.31c-.21-.22-.44-.38-.7-.48-.26-.1-.55-.14-.89-.14-.74,0-1.34.23-1.82.7-.48.46-.72,1.19-.72,2.18v6.41h-2.64v-11.52h2.64v1.22s.04-.07.06-.1c.65-.9,1.63-1.36,2.94-1.36.58,0,1.1.1,1.56.31.46.21.9.54,1.3,1.01l-1.73,1.78ZM346.38,786c.28.52.67.93,1.18,1.22s1.08.44,1.74.44c.56,0,1.08-.1,1.55-.3.47-.2.88-.5,1.21-.9l1.73,1.75c-.54.64-1.2,1.13-1.98,1.48-.78.34-1.61.52-2.51.52-1.14,0-2.16-.26-3.08-.79-.92-.53-1.64-1.25-2.17-2.16-.53-.91-.79-1.93-.79-3.05s.26-2.16.79-3.06c.53-.9,1.25-1.62,2.17-2.15.92-.53,1.95-.79,3.08-.79.9,0,1.73.17,2.51.52.78.34,1.44.84,1.98,1.48l-1.73,1.75c-.34-.4-.74-.7-1.21-.9-.47-.2-.99-.3-1.55-.3-.66,0-1.24.15-1.74.44-.5.3-.9.7-1.18,1.21-.28.51-.42,1.11-.42,1.8s.14,1.27.42,1.79ZM366.59,784.54c-.02.2-.06.42-.11.66h-8.59c.07.3.17.58.31.84.29.54.7.96,1.22,1.26.53.3,1.14.44,1.82.44.59,0,1.14-.1,1.64-.31.5-.21.93-.51,1.28-.91l1.68,1.7c-.56.66-1.24,1.15-2.04,1.49-.8.34-1.65.5-2.54.5-1.15,0-2.19-.26-3.11-.78-.92-.52-1.65-1.24-2.18-2.15-.54-.91-.8-1.94-.8-3.07s.26-2.16.79-3.06c.53-.9,1.24-1.62,2.15-2.15.9-.53,1.91-.79,3.01-.79s2.02.25,2.84.74,1.47,1.18,1.94,2.04c.47.86.71,1.85.71,2.95,0,.19-.01.39-.04.59ZM385.03,789.97h-2.64v-6.65c0-.77-.24-1.4-.73-1.9s-1.12-.74-1.88-.74c-.51,0-.97.11-1.37.34-.4.22-.71.54-.94.94-.22.4-.34.86-.34,1.37v6.65h-2.64v-11.52h2.64v1.35c.32-.39.69-.74,1.14-1,.68-.39,1.44-.59,2.29-.59s1.63.22,2.3.66c.67.44,1.2,1.01,1.58,1.7.38.7.58,1.42.58,2.17v7.22ZM398.87,784.54c-.02.2-.06.42-.11.66h-8.59c.07.3.17.58.31.84.29.54.7.96,1.22,1.26.53.3,1.14.44,1.82.44.59,0,1.14-.1,1.64-.31.5-.21.93-.51,1.28-.91l1.68,1.7c-.56.66-1.24,1.15-2.04,1.49-.8.34-1.65.5-2.54.5-1.15,0-2.19-.26-3.11-.78-.92-.52-1.65-1.24-2.18-2.15-.54-.91-.8-1.94-.8-3.07s.26-2.16.79-3.06c.53-.9,1.24-1.62,2.15-2.15.9-.53,1.91-.79,3.01-.79s2.02.25,2.84.74,1.47,1.18,1.94,2.04c.47.86.71,1.85.71,2.95,0,.19-.01.39-.04.59ZM411.24,785.15c0,1.01-.21,1.89-.64,2.65-.42.76-1.01,1.35-1.76,1.78-.75.42-1.62.64-2.62.64s-1.84-.22-2.6-.65c-.76-.43-1.35-1.03-1.78-1.79-.42-.76-.64-1.64-.64-2.63v-6.7h2.64v6.58c0,.56.09,1.04.28,1.43.18.39.46.69.82.9.36.21.79.31,1.28.31.77,0,1.36-.23,1.76-.68s.61-1.11.61-1.96v-6.58h2.64v6.7ZM421.15,781.31c-.21-.22-.44-.38-.7-.48-.26-.1-.55-.14-.89-.14-.74,0-1.34.23-1.82.7-.48.46-.72,1.19-.72,2.18v6.41h-2.64v-11.52h2.64v1.22s.04-.07.06-.1c.65-.9,1.63-1.36,2.94-1.36.58,0,1.1.1,1.56.31.46.21.9.54,1.3,1.01l-1.73,1.78ZM434.82,787.24c-.54.91-1.26,1.64-2.17,2.17-.91.54-1.94.8-3.07.8s-2.14-.27-3.05-.8c-.91-.54-1.64-1.26-2.17-2.17-.54-.91-.8-1.93-.8-3.05s.27-2.13.8-3.02c.54-.9,1.26-1.61,2.17-2.15s1.93-.8,3.05-.8,2.16.26,3.07.79c.91.53,1.64,1.24,2.17,2.15.54.9.8,1.92.8,3.04s-.27,2.14-.8,3.05ZM456.24,789.97h-2.64v-6.86c0-.77-.24-1.36-.72-1.79-.48-.42-1.07-.64-1.78-.64-.46,0-.89.1-1.27.29s-.69.47-.91.83c-.22.36-.34.8-.34,1.31v6.86h-2.64v-6.86c0-.77-.24-1.36-.72-1.79-.48-.42-1.07-.64-1.78-.64-.48,0-.91.1-1.28.29s-.68.47-.9.83c-.22.36-.34.8-.34,1.31v6.86h-2.64v-11.52h2.64v1.23c.32-.36.67-.69,1.1-.93.66-.36,1.39-.54,2.21-.54s1.55.18,2.21.53c.63.34,1.12.81,1.5,1.41.42-.59.94-1.06,1.58-1.4.68-.36,1.43-.54,2.24-.54s1.58.18,2.26.53c.67.35,1.21.85,1.61,1.49.4.64.6,1.41.6,2.3v7.44ZM469.95,787.24c-.54.91-1.26,1.64-2.17,2.17-.91.54-1.94.8-3.07.8s-2.14-.27-3.05-.8c-.91-.54-1.64-1.26-2.17-2.17-.54-.91-.8-1.93-.8-3.05s.27-2.13.8-3.02c.54-.9,1.26-1.61,2.17-2.15s1.93-.8,3.05-.8,2.16.26,3.07.79c.91.53,1.64,1.24,2.17,2.15.54.9.8,1.92.8,3.04s-.27,2.14-.8,3.05ZM484.41,789.97h-2.64v-1.31c-.33.39-.71.73-1.18.99-.69.38-1.47.56-2.35.56-1.04,0-1.98-.26-2.82-.79-.84-.53-1.5-1.24-1.99-2.15-.49-.9-.73-1.92-.73-3.04s.24-2.16.73-3.06,1.15-1.62,1.99-2.16,1.78-.8,2.82-.8c.88,0,1.66.19,2.34.56.47.26.85.61,1.19,1.01v-7.09h2.64v17.28ZM497.57,785.15c0,1.01-.21,1.89-.64,2.65-.42.76-1.01,1.35-1.76,1.78-.75.42-1.62.64-2.62.64s-1.84-.22-2.6-.65c-.76-.43-1.35-1.03-1.78-1.79-.42-.76-.64-1.64-.64-2.63v-6.7h2.64v6.58c0,.56.09,1.04.28,1.43.18.39.46.69.82.9.36.21.79.31,1.28.31.77,0,1.36-.23,1.76-.68s.61-1.11.61-1.96v-6.58h2.64v6.7ZM503.35,789.97h-2.64v-17.28h2.64v17.28ZM517.75,789.97h-2.64v-1.31c-.33.39-.71.73-1.18.99-.69.38-1.47.56-2.35.56-1.04,0-1.98-.26-2.82-.79-.84-.53-1.5-1.24-1.99-2.15-.49-.9-.73-1.92-.73-3.04s.24-2.16.73-3.06,1.15-1.62,1.99-2.16,1.78-.8,2.82-.8c.88,0,1.66.19,2.34.56.47.26.85.61,1.19,1.01v-1.33h2.64v11.52ZM528.31,780.85h-2.76v9.12h-2.64v-9.12h-2.76v-2.4h2.76v-4.8h2.64v4.8h2.76v2.4ZM533.37,789.97h-2.64v-11.52h2.64v11.52ZM533.18,775.89c-.29.3-.66.46-1.13.46s-.82-.15-1.12-.46c-.3-.3-.44-.68-.44-1.13s.15-.82.44-1.13c.3-.3.67-.46,1.12-.46s.84.15,1.13.46c.29.3.43.68.43,1.13s-.14.82-.43,1.13ZM547.33,787.24c-.54.91-1.26,1.64-2.17,2.17-.91.54-1.94.8-3.07.8s-2.14-.27-3.05-.8c-.91-.54-1.64-1.26-2.17-2.17-.54-.91-.8-1.93-.8-3.05s.27-2.13.8-3.02c.54-.9,1.26-1.61,2.17-2.15s1.93-.8,3.05-.8,2.16.26,3.07.79c.91.53,1.64,1.24,2.17,2.15.54.9.8,1.92.8,3.04s-.27,2.14-.8,3.05ZM561.33,789.97h-2.64v-6.65c0-.77-.24-1.4-.73-1.9s-1.12-.74-1.88-.74c-.51,0-.97.11-1.37.34-.4.22-.71.54-.94.94-.22.4-.34.86-.34,1.37v6.65h-2.64v-11.52h2.64v1.35c.32-.39.69-.74,1.14-1,.68-.39,1.44-.59,2.29-.59s1.63.22,2.3.66c.67.44,1.2,1.01,1.58,1.7.38.7.58,1.42.58,2.17v7.22ZM580.76,787.27c-.49.9-1.15,1.62-1.99,2.15-.84.53-1.78.79-2.82.79-.88,0-1.66-.19-2.35-.56-.47-.26-.85-.6-1.18-.99v6.11h-2.64v-16.32h2.64v1.34c.34-.4.72-.75,1.2-1.01.69-.38,1.46-.56,2.33-.56,1.04,0,1.98.27,2.82.8s1.5,1.26,1.99,2.16c.49.9.73,1.92.73,3.06s-.24,2.13-.73,3.04ZM586.82,789.97h-2.64v-17.28h2.64v17.28ZM601.22,789.97h-2.64v-1.31c-.33.39-.71.73-1.18.99-.69.38-1.47.56-2.35.56-1.04,0-1.98-.26-2.82-.79-.84-.53-1.5-1.24-1.99-2.15-.49-.9-.73-1.92-.73-3.04s.24-2.16.73-3.06,1.15-1.62,1.99-2.16,1.78-.8,2.82-.8c.88,0,1.66.19,2.34.56.47.26.85.61,1.19,1.01v-1.33h2.64v11.52ZM611.78,780.85h-2.76v9.12h-2.64v-9.12h-2.76v-2.4h2.76v-4.8h2.64v4.8h2.76v2.4ZM621.5,778.45v2.4h-3.48v9.12h-2.64v-9.12h-2.76v-2.4h2.76v-1.51c0-.88.2-1.66.59-2.33.39-.67.94-1.2,1.63-1.58.7-.38,1.5-.58,2.41-.58.7,0,1.3.12,1.8.36.5.24.96.58,1.39,1.03l-1.7,1.7c-.19-.19-.4-.34-.62-.46-.22-.11-.51-.17-.86-.17-.64,0-1.13.17-1.48.52s-.52.84-.52,1.48v1.54h3.48ZM633.9,787.24c-.54.91-1.26,1.64-2.17,2.17-.91.54-1.94.8-3.07.8s-2.14-.27-3.05-.8c-.91-.54-1.64-1.26-2.17-2.17-.54-.91-.8-1.93-.8-3.05s.27-2.13.8-3.02c.54-.9,1.26-1.61,2.17-2.15s1.93-.8,3.05-.8,2.16.26,3.07.79c.91.53,1.64,1.24,2.17,2.15.54.9.8,1.92.8,3.04s-.27,2.14-.8,3.05ZM644.13,781.31c-.21-.22-.44-.38-.7-.48-.26-.1-.55-.14-.89-.14-.74,0-1.34.23-1.82.7-.48.46-.72,1.19-.72,2.18v6.41h-2.64v-11.52h2.64v1.22s.04-.07.06-.1c.65-.9,1.63-1.36,2.94-1.36.58,0,1.1.1,1.56.31.46.21.9.54,1.3,1.01l-1.73,1.78ZM665.56,789.97h-2.64v-6.86c0-.77-.24-1.36-.72-1.79-.48-.42-1.07-.64-1.78-.64-.46,0-.89.1-1.27.29s-.69.47-.91.83c-.22.36-.34.8-.34,1.31v6.86h-2.64v-6.86c0-.77-.24-1.36-.72-1.79-.48-.42-1.07-.64-1.78-.64-.48,0-.91.1-1.28.29s-.68.47-.9.83c-.22.36-.34.8-.34,1.31v6.86h-2.64v-11.52h2.64v1.23c.32-.36.67-.69,1.1-.93.66-.36,1.39-.54,2.21-.54s1.55.18,2.21.53c.63.34,1.12.81,1.5,1.41.42-.59.94-1.06,1.58-1.4.68-.36,1.43-.54,2.24-.54s1.58.18,2.26.53c.67.35,1.21.85,1.61,1.49.4.64.6,1.41.6,2.3v7.44ZM685.03,789.97h-2.64v-1.31c-.33.39-.71.73-1.18.99-.69.38-1.47.56-2.35.56-1.04,0-1.98-.26-2.82-.79-.84-.53-1.5-1.24-1.99-2.15-.49-.9-.73-1.92-.73-3.04s.24-2.16.73-3.06,1.15-1.62,1.99-2.16,1.78-.8,2.82-.8c.88,0,1.66.19,2.34.56.47.26.85.61,1.19,1.01v-1.33h2.64v11.52ZM698.97,789.97h-2.64v-6.65c0-.77-.24-1.4-.73-1.9s-1.12-.74-1.88-.74c-.51,0-.97.11-1.37.34-.4.22-.71.54-.94.94-.22.4-.34.86-.34,1.37v6.65h-2.64v-11.52h2.64v1.35c.32-.39.69-.74,1.14-1,.68-.39,1.44-.59,2.29-.59s1.63.22,2.3.66c.67.44,1.2,1.01,1.58,1.7.38.7.58,1.42.58,2.17v7.22ZM713.13,789.97h-2.64v-1.31c-.33.39-.71.73-1.18.99-.69.38-1.47.56-2.35.56-1.04,0-1.98-.26-2.82-.79-.84-.53-1.5-1.24-1.99-2.15-.49-.9-.73-1.92-.73-3.04s.24-2.16.73-3.06,1.15-1.62,1.99-2.16,1.78-.8,2.82-.8c.88,0,1.66.19,2.34.56.47.26.85.61,1.19,1.01v-7.09h2.64v17.28ZM724.21,786c.28.52.67.93,1.18,1.22s1.08.44,1.74.44c.56,0,1.08-.1,1.55-.3.47-.2.88-.5,1.21-.9l1.73,1.75c-.54.64-1.2,1.13-1.98,1.48-.78.34-1.61.52-2.51.52-1.14,0-2.16-.26-3.08-.79-.92-.53-1.64-1.25-2.17-2.16-.53-.91-.79-1.93-.79-3.05s.26-2.16.79-3.06c.53-.9,1.25-1.62,2.17-2.15.92-.53,1.95-.79,3.08-.79.9,0,1.73.17,2.51.52.78.34,1.44.84,1.98,1.48l-1.73,1.75c-.34-.4-.74-.7-1.21-.9-.47-.2-.99-.3-1.55-.3-.66,0-1.24.15-1.74.44-.5.3-.9.7-1.18,1.21-.28.51-.42,1.11-.42,1.8s.14,1.27.42,1.79ZM744.27,787.24c-.54.91-1.26,1.64-2.17,2.17-.91.54-1.94.8-3.07.8s-2.14-.27-3.05-.8c-.91-.54-1.64-1.26-2.17-2.17-.54-.91-.8-1.93-.8-3.05s.27-2.13.8-3.02c.54-.9,1.26-1.61,2.17-2.15s1.93-.8,3.05-.8,2.16.26,3.07.79c.91.53,1.64,1.24,2.17,2.15.54.9.8,1.92.8,3.04s-.27,2.14-.8,3.05ZM765.69,789.97h-2.64v-6.86c0-.77-.24-1.36-.72-1.79-.48-.42-1.07-.64-1.78-.64-.46,0-.89.1-1.27.29s-.69.47-.91.83c-.22.36-.34.8-.34,1.31v6.86h-2.64v-6.86c0-.77-.24-1.36-.72-1.79-.48-.42-1.07-.64-1.78-.64-.48,0-.91.1-1.28.29s-.68.47-.9.83c-.22.36-.34.8-.34,1.31v6.86h-2.64v-11.52h2.64v1.23c.32-.36.67-.69,1.1-.93.66-.36,1.39-.54,2.21-.54s1.55.18,2.21.53c.63.34,1.12.81,1.5,1.41.42-.59.94-1.06,1.58-1.4.68-.36,1.43-.54,2.24-.54s1.58.18,2.26.53c.67.35,1.21.85,1.61,1.49.4.64.6,1.41.6,2.3v7.44ZM786.83,789.97h-2.64v-6.86c0-.77-.24-1.36-.72-1.79-.48-.42-1.07-.64-1.78-.64-.46,0-.89.1-1.27.29s-.69.47-.91.83c-.22.36-.34.8-.34,1.31v6.86h-2.64v-6.86c0-.77-.24-1.36-.72-1.79-.48-.42-1.07-.64-1.78-.64-.48,0-.91.1-1.28.29s-.68.47-.9.83c-.22.36-.34.8-.34,1.31v6.86h-2.64v-11.52h2.64v1.23c.32-.36.67-.69,1.1-.93.66-.36,1.39-.54,2.21-.54s1.55.18,2.21.53c.63.34,1.12.81,1.5,1.41.42-.59.94-1.06,1.58-1.4.68-.36,1.43-.54,2.24-.54s1.58.18,2.26.53c.67.35,1.21.85,1.61,1.49.4.64.6,1.41.6,2.3v7.44ZM799.77,785.15c0,1.01-.21,1.89-.64,2.65-.42.76-1.01,1.35-1.76,1.78-.75.42-1.62.64-2.62.64s-1.84-.22-2.6-.65c-.76-.43-1.35-1.03-1.78-1.79-.42-.76-.64-1.64-.64-2.63v-6.7h2.64v6.58c0,.56.09,1.04.28,1.43.18.39.46.69.82.9.36.21.79.31,1.28.31.77,0,1.36-.23,1.76-.68s.61-1.11.61-1.96v-6.58h2.64v6.7ZM813.45,789.97h-2.64v-6.65c0-.77-.24-1.4-.73-1.9s-1.12-.74-1.88-.74c-.51,0-.97.11-1.37.34-.4.22-.71.54-.94.94-.22.4-.34.86-.34,1.37v6.65h-2.64v-11.52h2.64v1.35c.32-.39.69-.74,1.14-1,.68-.39,1.44-.59,2.29-.59s1.63.22,2.3.66c.67.44,1.2,1.01,1.58,1.7.38.7.58,1.42.58,2.17v7.22ZM819.28,789.97h-2.64v-11.52h2.64v11.52ZM819.09,775.89c-.29.3-.66.46-1.13.46s-.82-.15-1.12-.46c-.3-.3-.44-.68-.44-1.13s.15-.82.44-1.13c.3-.3.67-.46,1.12-.46s.84.15,1.13.46c.29.3.43.68.43,1.13s-.14.82-.43,1.13ZM829.87,780.85h-2.76v9.12h-2.64v-9.12h-2.76v-2.4h2.76v-4.8h2.64v4.8h2.76v2.4ZM837.62,790.09l-2.14,4.68h-2.93l2.89-5.96-4.38-10.36h2.9l2.95,7.51,3.12-7.51h2.93l-5.35,11.64ZM903.71,796.14c0,.55-.45,1-1,1s-1-.45-1-1v-29.4c0-.55.45-1,1-1s1,.45,1,1v29.4ZM972.22,789.6c-.95.4-2.06.59-3.32.59-1.13,0-2.18-.2-3.15-.6-.97-.4-1.82-.97-2.54-1.69-.73-.73-1.28-1.57-1.67-2.54-.39-.97-.58-2.01-.58-3.12s.19-2.16.58-3.12c.39-.97.95-1.81,1.67-2.53.73-.72,1.57-1.28,2.53-1.69.96-.41,2.01-.62,3.16-.62,1.23,0,2.32.2,3.26.61s1.77.96,2.49,1.66l-2.02,2.02c-.42-.47-.95-.84-1.56-1.1-.62-.26-1.33-.4-2.16-.4-.72,0-1.38.12-1.97.36s-1.11.59-1.55,1.06c-.44.46-.78,1.01-1.01,1.65-.23.64-.35,1.34-.35,2.1s.12,1.48.35,2.11.57,1.18,1.01,1.64c.44.46.96.82,1.55,1.07s1.25.37,1.97.37c.87,0,1.61-.13,2.23-.4.62-.26,1.15-.64,1.57-1.12l2.02,2.02c-.72.72-1.55,1.28-2.51,1.67ZM991.91,785.35c-.41.97-.98,1.82-1.71,2.54s-1.57,1.29-2.53,1.71c-.96.41-2.01.62-3.13.62s-2.18-.21-3.16-.62-1.83-.98-2.55-1.71c-.73-.73-1.29-1.58-1.71-2.55-.41-.98-.62-2.02-.62-3.13s.2-2.15.61-3.11c.4-.96.97-1.8,1.69-2.53.73-.73,1.57-1.29,2.54-1.69s2.02-.61,3.15-.61,2.2.2,3.17.61c.97.4,1.81.97,2.54,1.69.73.73,1.29,1.57,1.71,2.54.41.97.62,2.01.62,3.12s-.21,2.16-.62,3.12ZM1004.27,788.96c-1.01.82-2.4,1.23-4.16,1.23-1.25,0-2.31-.21-3.2-.64-.89-.42-1.69-1.06-2.41-1.91l1.98-1.98c.45.6.98,1.07,1.58,1.4.6.33,1.33.5,2.2.5.78,0,1.4-.15,1.86-.46.46-.31.69-.73.69-1.28,0-.47-.13-.85-.4-1.14-.26-.29-.61-.54-1.04-.75s-.91-.39-1.43-.56c-.52-.17-1.04-.36-1.56-.58-.52-.22-1-.5-1.43-.82-.43-.33-.78-.76-1.04-1.28s-.4-1.18-.4-1.97c0-.94.23-1.74.68-2.4.45-.66,1.08-1.17,1.87-1.52.79-.35,1.69-.53,2.68-.53,1.06,0,2.01.2,2.86.59.85.4,1.55.91,2.09,1.54l-1.98,1.98c-.45-.5-.92-.87-1.4-1.1-.48-.23-1.02-.35-1.62-.35-.69,0-1.23.13-1.63.4-.4.26-.59.65-.59,1.14,0,.43.13.77.4,1.03.26.26.61.49,1.04.68s.91.37,1.43.55c.52.18,1.04.37,1.56.59.52.22,1,.51,1.43.86.43.35.78.8,1.04,1.35.26.55.4,1.23.4,2.03,0,1.44-.51,2.57-1.52,3.39ZM1024.78,789.97h-2.97v-9.25l-3.78,6.08h-2.02l-3.76-6.04v9.21h-2.99v-15.47h2.11l5.66,9.06,5.64-9.06h2.11v15.47ZM1032.04,789.97h-2.99v-15.47h2.99v15.47ZM1039.3,789.97h-2.99v-15.47h2.99v15.47ZM1054.06,789.6c-.95.4-2.06.59-3.32.59-1.13,0-2.18-.2-3.15-.6-.97-.4-1.82-.97-2.54-1.69-.73-.73-1.28-1.57-1.67-2.54-.39-.97-.58-2.01-.58-3.12s.19-2.16.58-3.12c.39-.97.95-1.81,1.67-2.53.73-.72,1.57-1.28,2.53-1.69.96-.41,2.01-.62,3.16-.62,1.23,0,2.32.2,3.26.61s1.77.96,2.49,1.66l-2.02,2.02c-.42-.47-.95-.84-1.56-1.1-.62-.26-1.33-.4-2.16-.4-.72,0-1.38.12-1.97.36s-1.11.59-1.55,1.06c-.44.46-.78,1.01-1.01,1.65-.23.64-.35,1.34-.35,2.1s.12,1.48.35,2.11.57,1.18,1.01,1.64c.44.46.96.82,1.55,1.07s1.25.37,1.97.37c.87,0,1.61-.13,2.23-.4.62-.26,1.15-.64,1.57-1.12l2.02,2.02c-.72.72-1.55,1.28-2.51,1.67ZM1062.7,789.67c-.34.35-.76.53-1.28.53s-.96-.18-1.3-.53c-.34-.35-.51-.79-.51-1.3s.17-.95.51-1.3c.34-.35.77-.53,1.3-.53s.94.18,1.28.53c.34.35.51.79.51,1.3s-.17.95-.51,1.3ZM1081.23,785.35c-.41.97-.98,1.82-1.71,2.54s-1.57,1.29-2.53,1.71c-.96.41-2.01.62-3.13.62s-2.18-.21-3.16-.62-1.83-.98-2.55-1.71c-.73-.73-1.29-1.58-1.71-2.55-.41-.98-.62-2.02-.62-3.13s.2-2.15.61-3.11c.4-.96.97-1.8,1.69-2.53.73-.73,1.57-1.29,2.54-1.69s2.02-.61,3.15-.61,2.2.2,3.17.61c.97.4,1.81.97,2.54,1.69.73.73,1.29,1.57,1.71,2.54.41.97.62,2.01.62,3.12s-.21,2.16-.62,3.12ZM1093.77,789.97l-4.94-6.47h-.52v6.47h-2.99v-15.47h6.05c1,0,1.87.19,2.63.58.76.39,1.34.92,1.76,1.59s.63,1.45.63,2.33-.21,1.7-.63,2.37-1.01,1.19-1.77,1.56c-.53.26-1.12.42-1.77.5l5.18,6.53h-3.63ZM1114.91,781.83c0,1.85-.33,3.39-.99,4.63s-1.57,2.17-2.72,2.79-2.47.93-3.97.93c-1.1,0-2.13-.2-3.09-.6-.96-.4-1.8-.97-2.53-1.71-.73-.73-1.29-1.58-1.69-2.54s-.6-2-.6-3.11.21-2.17.62-3.13c.41-.96.98-1.8,1.72-2.53.73-.73,1.59-1.29,2.57-1.69s2.05-.61,3.19-.61c1.28,0,2.45.24,3.52.71s1.96,1.15,2.66,2.01l-2.02,2.02c-.48-.63-1.09-1.11-1.8-1.45-.72-.34-1.51-.51-2.38-.51-.98,0-1.85.22-2.61.65-.76.43-1.35,1.03-1.77,1.8-.43.77-.64,1.67-.64,2.7s.21,1.93.63,2.72.99,1.4,1.72,1.84c.73.44,1.56.66,2.5.66s1.8-.18,2.49-.54,1.22-.89,1.58-1.58c.19-.37.33-.78.42-1.24l-4.67-.05v-2.6h7.88v.42Z"/>
    <path class="cls-1" d="M126.39,781.2c-.5-.3-1.07-.44-1.73-.44s-1.21.15-1.72.44c-.5.3-.9.7-1.18,1.21-.28.51-.42,1.1-.42,1.78s.14,1.27.42,1.8c.28.53.67.94,1.18,1.24s1.08.44,1.72.44,1.24-.15,1.74-.44.9-.71,1.18-1.24c.28-.53.42-1.13.42-1.8s-.14-1.26-.43-1.78c-.29-.51-.68-.92-1.18-1.21Z"/>
    <path class="cls-1" d="M362.7,781.02c-.44-.26-.98-.38-1.62-.38-.67,0-1.26.14-1.75.43s-.88.69-1.15,1.21c-.12.23-.2.49-.27.76h6.11c-.07-.34-.16-.65-.3-.91-.24-.48-.58-.85-1.02-1.1Z"/>
    <path class="cls-1" d="M1077.4,778.48c-.44-.46-.96-.82-1.56-1.07-.6-.25-1.28-.37-2.02-.37-.97,0-1.82.22-2.56.65s-1.32,1.04-1.74,1.82-.63,1.68-.63,2.71c0,.78.12,1.49.36,2.13s.58,1.2,1.01,1.65c.43.46.95.81,1.56,1.06.61.25,1.27.37,1.99.37,1,0,1.86-.22,2.6-.66.73-.44,1.31-1.05,1.73-1.83s.63-1.69.63-2.73c0-.76-.12-1.46-.35-2.09-.23-.63-.57-1.18-1.01-1.64Z"/>
    <path class="cls-1" d="M156.64,781.15c-.49-.3-1.05-.44-1.69-.44s-1.23.15-1.72.44c-.49.3-.87.71-1.15,1.24-.28.53-.42,1.14-.42,1.82s.14,1.3.42,1.82c.28.53.66.94,1.15,1.24.49.3,1.05.44,1.69.44s1.23-.15,1.72-.44c.49-.3.87-.71,1.14-1.24.27-.53.41-1.14.41-1.82s-.14-1.3-.41-1.82c-.27-.53-.65-.94-1.14-1.24Z"/>
    <path class="cls-1" d="M314.21,781.2c-.5-.3-1.07-.44-1.73-.44s-1.21.15-1.72.44c-.5.3-.9.7-1.18,1.21-.28.51-.42,1.1-.42,1.78s.14,1.27.42,1.8c.28.53.67.94,1.18,1.24s1.08.44,1.72.44,1.24-.15,1.74-.44.9-.71,1.18-1.24c.28-.53.42-1.13.42-1.8s-.14-1.26-.43-1.78c-.29-.51-.68-.92-1.18-1.21Z"/>
    <path class="cls-1" d="M270.9,781.02c-.44-.26-.98-.38-1.62-.38-.67,0-1.26.14-1.75.43s-.88.69-1.15,1.21c-.12.23-.2.49-.27.76h6.11c-.07-.34-.16-.65-.3-.91-.24-.48-.58-.85-1.02-1.1Z"/>
    <path class="cls-1" d="M257.15,781.15c-.49-.3-1.05-.44-1.69-.44s-1.21.15-1.7.44c-.5.3-.88.71-1.15,1.24s-.41,1.14-.41,1.82.14,1.3.41,1.82c.27.53.66.94,1.15,1.24.5.3,1.06.44,1.7.44s1.2-.15,1.69-.44c.49-.3.87-.71,1.15-1.24.28-.53.42-1.14.42-1.82s-.14-1.3-.42-1.82-.66-.94-1.15-1.24Z"/>
    <path class="cls-1" d="M242.74,781.2c-.5-.3-1.07-.44-1.73-.44s-1.21.15-1.72.44c-.5.3-.9.7-1.18,1.21-.28.51-.42,1.1-.42,1.78s.14,1.27.42,1.8c.28.53.67.94,1.18,1.24s1.08.44,1.72.44,1.24-.15,1.74-.44.9-.71,1.18-1.24c.28-.53.42-1.13.42-1.8s-.14-1.26-.43-1.78c-.29-.51-.68-.92-1.18-1.21Z"/>
  </g>
</svg>