<?xml version="1.0" encoding="utf-8"?>
<!-- Generator: Adobe Illustrator 28.0.0, SVG Export Plug-In . SVG Version: 6.00 Build 0)  -->
<svg version="1.1" id="Layer_1" xmlns="http://www.w3.org/2000/svg" xmlns:xlink="http://www.w3.org/1999/xlink" x="0px" y="0px"
	 viewBox="0 0 106.83 106.83" style="enable-background:new 0 0 106.83 106.83;" xml:space="preserve">
<style type="text/css">
	.st0{fill:#008280;}
	.st1{fill:#FFFFFF;}
</style>
<g>
	<path class="st0" d="M53.41,106.83c29.5,0,53.42-23.92,53.42-53.42C106.83,23.91,82.91,0,53.41,0S0,23.91,0,53.41
		C0,82.91,23.91,106.83,53.41,106.83"/>
	<path class="st1" d="M68.02,60.15C49.7,65.3,46.73,69.47,41.58,90.49c-5.15-21.02-8.12-25.19-26.43-30.34
		C33.46,55,36.43,50.83,41.58,29.81C46.73,50.83,49.7,55,68.02,60.15"/>
	<path class="st1" d="M88.22,37.77c-8.83,2.16-10.58,3.91-12.74,12.74c-2.16-8.83-3.91-10.58-12.74-12.74
		c8.83-2.16,10.58-3.91,12.74-12.74C77.64,33.85,79.39,35.6,88.22,37.77"/>
</g>
</svg>
