<?xml version="1.0" encoding="utf-8"?>
<!-- Generator: Adobe Illustrator 28.0.0, SVG Export Plug-In . SVG Version: 6.00 Build 0)  -->
<svg version="1.1" id="Layer_1" xmlns="http://www.w3.org/2000/svg" xmlns:xlink="http://www.w3.org/1999/xlink" x="0px" y="0px"
	 viewBox="0 0 183.53 60.14" style="enable-background:new 0 0 183.53 60.14;" xml:space="preserve">
<style type="text/css">
	.st0{fill:#008280;}
	.st1{fill:#FFFFFF;}
</style>
<g>
	<path class="st0" d="M0,41.38C0,30.7,8.39,22.57,18.81,22.57c5.21,0,9.54,2.03,12.77,5.26c0.37,0.37,0.31,0.73,0,1.1l-3.65,3.91
		c-0.31,0.36-0.73,0.36-1.09,0.05c-2.19-1.82-4.8-3.02-8.03-3.02c-6.41,0-11.26,4.9-11.26,11.52c0,6.62,4.85,11.46,11.26,11.46
		c3.23,0,5.84-1.2,8.03-3.02c0.36-0.31,0.78-0.31,1.09,0.05l3.65,3.91c0.31,0.31,0.37,0.68,0,1.04c-3.23,3.28-7.56,5.31-12.77,5.31
		C8.39,60.14,0,52.07,0,41.38"/>
	<path class="st0" d="M31.11,41.38c0-10.58,8.39-18.81,18.76-18.81c10.37,0,18.76,8.23,18.76,18.81c0,10.53-8.39,18.76-18.76,18.76
		C39.5,60.14,31.11,51.91,31.11,41.38 M49.87,52.85c6.41,0,11.2-4.95,11.2-11.46c0-6.57-4.79-11.52-11.2-11.52
		c-6.36,0-11.2,4.95-11.2,11.52C38.67,47.9,43.51,52.85,49.87,52.85"/>
	<path class="st0" d="M69.25,54.41c-0.26-0.36-0.26-0.73,0.1-1.15l3.02-3.49c0.37-0.42,0.78-0.47,1.2-0.1
		c2.29,2.35,4.38,3.59,7.35,3.59c3.07,0,5.11-1.3,5.11-3.91c0-2.45-1.82-3.34-4.38-4.48l-4.43-2.08c-3.86-1.77-7.3-4.53-7.3-9.95
		c0-6.62,5.06-10.27,11.26-10.27c4.33,0,7.82,1.72,10.68,4.8c0.36,0.36,0.36,0.78,0.05,1.2l-2.97,3.6
		c-0.31,0.42-0.73,0.52-1.15,0.21c-2.24-1.98-4.07-2.97-6.36-2.97c-2.66,0-4.33,1.3-4.33,3.49c0,2.14,1.46,2.97,4.27,4.27l3.75,1.72
		c3.96,1.88,8.13,4.32,8.13,10.47c0,7.35-5.99,10.74-12.19,10.74C75.4,60.09,71.39,57.33,69.25,54.41"/>
	<path class="st0" d="M131.37,58.68V23.77c0-0.47,0.31-0.78,0.78-0.78h5.89c0.47,0,0.78,0.31,0.78,0.78v34.92
		c0,0.47-0.31,0.78-0.78,0.78h-5.89C131.68,59.47,131.37,59.15,131.37,58.68"/>
	<path class="st0" d="M142.05,58.68V23.77c0-0.47,0.31-0.78,0.78-0.78h5.89c0.47,0,0.78,0.31,0.78,0.78v34.92
		c0,0.47-0.31,0.78-0.78,0.78h-5.89C142.36,59.47,142.05,59.15,142.05,58.68"/>
	<path class="st0" d="M151.69,41.38c0-10.68,8.39-18.81,18.81-18.81c5.21,0,9.54,2.03,12.77,5.26c0.36,0.37,0.31,0.73,0,1.1
		l-3.65,3.91c-0.31,0.36-0.73,0.36-1.09,0.05c-2.19-1.82-4.79-3.02-8.03-3.02c-6.41,0-11.26,4.9-11.26,11.52
		c0,6.62,4.85,11.46,11.26,11.46c3.23,0,5.84-1.2,8.03-3.02c0.36-0.31,0.78-0.31,1.09,0.05l3.65,3.91c0.31,0.31,0.36,0.68,0,1.04
		c-3.23,3.28-7.56,5.31-12.77,5.31C160.08,60.14,151.69,52.07,151.69,41.38"/>
	<path class="st0" d="M129.03,24.36c-12.7,3.57-14.76,6.46-18.33,21.04c-3.57-14.57-5.63-17.47-18.33-21.04
		c12.7-3.57,14.76-6.46,18.33-21.04C114.27,17.89,116.33,20.79,129.03,24.36"/>
	<path class="st0" d="M143.04,8.83c-6.12,1.5-7.34,2.71-8.84,8.83c-1.5-6.12-2.71-7.34-8.83-8.83c6.12-1.5,7.34-2.71,8.83-8.83
		C135.71,6.12,136.92,7.34,143.04,8.83"/>
	<polygon class="st0" points="100.55,43.22 100.55,59.47 107.67,59.47 	"/>
	<polygon class="st0" points="121.37,43.22 121.37,59.47 114.25,59.47 	"/>
</g>
</svg>
